<svg xmlns="http://www.w3.org/2000/svg" width="32" height="32" viewBox="0 0 32 32"><path d="M16 32c-8.8 0-16-7.2-16-16s7.2-16 16-16c8.8 0 16 7.2 16 16s-7.2 16-16 16v0zM29.5 18.2c-0.5-0.1-4.2-1.3-8.5-0.6 1.8 4.9 2.5 8.9 2.7 9.7 3.1-2.1 5.3-5.4 5.9-9.2v0zM21.3 28.6c-0.2-1.2-1-5.4-2.9-10.4 0 0-0.1 0-0.1 0-7.7 2.7-10.5 8-10.7 8.5 2.3 1.8 5.2 2.9 8.4 2.9 1.9 0 3.7-0.4 5.3-1.1v0zM5.8 25.2c0.3-0.5 4.1-6.7 11.1-9 0.2-0.1 0.4-0.1 0.5-0.2-0.3-0.8-0.7-1.6-1.1-2.3-6.8 2-13.4 2-14 2 0 0.1 0 0.3 0 0.4 0 3.5 1.3 6.7 3.5 9.1v0zM2.6 13.2c0.6 0 6.2 0 12.6-1.7-2.3-4-4.7-7.4-5.1-7.9-3.8 1.8-6.7 5.3-7.6 9.6v0zM12.8 2.7c0.4 0.5 2.9 3.9 5.1 8 4.9-1.8 6.9-4.6 7.2-4.9-2.4-2.1-5.6-3.4-9.1-3.4-1.1 0-2.2 0.1-3.2 0.4v0zM26.6 7.4c-0.3 0.4-2.6 3.3-7.6 5.4 0.3 0.7 0.6 1.3 0.9 2 0.1 0.2 0.2 0.5 0.3 0.7 4.6-0.6 9.1 0.3 9.5 0.4 0-3.2-1.2-6.2-3.1-8.5v0z"/></svg>