<svg xmlns="http://www.w3.org/2000/svg" width="32" height="32" viewBox="0 0 32 32"><path d="M16 2.9c4.3 0 4.8 0 6.5 0.1 1.6 0.1 2.4 0.3 3 0.6 0.7 0.3 1.3 0.6 1.8 1.2 0.6 0.6 0.9 1.1 1.2 1.8 0.2 0.6 0.5 1.4 0.6 3 0.1 1.7 0.1 2.2 0.1 6.5s0 4.8-0.1 6.5c-0.1 1.6-0.3 2.4-0.5 3-0.3 0.7-0.6 1.3-1.2 1.8-0.6 0.6-1.1 0.9-1.8 1.2-0.6 0.2-1.4 0.5-3 0.6-1.7 0.1-2.2 0.1-6.5 0.1s-4.8 0-6.5-0.1c-1.6-0.1-2.4-0.3-3-0.5-0.7-0.3-1.3-0.6-1.8-1.2-0.6-0.6-0.9-1.1-1.2-1.8-0.2-0.6-0.5-1.4-0.5-3-0.1-1.7-0.1-2.2-0.1-6.5s0-4.8 0.1-6.5c0.1-1.6 0.3-2.4 0.6-3 0.3-0.7 0.6-1.3 1.2-1.8 0.6-0.6 1.1-0.9 1.8-1.2 0.6-0.2 1.4-0.5 3-0.5 1.7-0.1 2.2-0.1 6.5-0.1zM16 0c-4.3 0-4.9 0-6.6 0.1-1.7 0.1-2.9 0.4-3.9 0.7-1.1 0.4-1.9 1-2.8 1.9-0.9 0.9-1.4 1.8-1.8 2.8-0.4 1-0.7 2.2-0.7 3.9-0.1 1.7-0.1 2.3-0.1 6.6s0 4.9 0.1 6.6c0.1 1.7 0.4 2.9 0.7 3.9 0.4 1.1 1 2 1.9 2.8 0.9 0.9 1.8 1.4 2.8 1.8 1 0.4 2.2 0.7 3.9 0.7 1.7 0.1 2.3 0.1 6.6 0.1s4.9 0 6.6-0.1c1.7-0.1 2.9-0.3 3.9-0.7 1.1-0.4 1.9-1 2.8-1.8s1.4-1.8 1.8-2.8c0.4-1 0.7-2.2 0.7-3.9 0.1-1.7 0.1-2.2 0.1-6.6s0-4.9-0.1-6.6c-0.1-1.7-0.3-2.9-0.7-3.9-0.4-1.1-0.9-2-1.8-2.8-0.9-0.9-1.8-1.4-2.8-1.8-1-0.4-2.2-0.7-3.9-0.7-1.7-0.1-2.3-0.1-6.6-0.1v0z"/><path d="M16 7.8c-4.5 0-8.2 3.7-8.2 8.2s3.7 8.2 8.2 8.2 8.2-3.7 8.2-8.2c0-4.5-3.7-8.2-8.2-8.2zM16 21.3c-2.9 0-5.3-2.4-5.3-5.3s2.4-5.3 5.3-5.3c2.9 0 5.3 2.4 5.3 5.3s-2.4 5.3-5.3 5.3z"/><path d="M26.5 7.5c0 1.1-0.9 1.9-1.9 1.9s-1.9-0.9-1.9-1.9c0-1.1 0.9-1.9 1.9-1.9s1.9 0.9 1.9 1.9z"/></svg>