
<svg width="140px" height="17.25px" viewBox="637 299 180 23" version="1.1" xmlns="http://www.w3.org/2000/svg" xmlns:xlink="http://www.w3.org/1999/xlink">
    <!-- Generator: Sketch 39.1 (31720) - http://www.bohemiancoding.com/sketch -->
    <desc>Created with Sketch.</desc>
    <defs>
        <polygon id="path-1" points="89.8117826 21.8898261 179.623043 21.8898261 179.623043 0.000260869565 0.00052173913 0.000260869565 0.00052173913 21.8898261 89.8117826 21.8898261"></polygon>
    </defs>
    <g id="Page-1" stroke="none" stroke-width="1" fill="none" fill-rule="evenodd" transform="translate(637.000000, 299.000000)">
        <mask id="mask-2" fill="white">
            <use xlink:href="#path-1"></use>
        </mask>
        <g id="Clip-2"></g>
        <path d="M179.297478,10.0424348 L101.104435,10.0424348 L109.610087,1.53678261 C109.671391,1.47678261 109.705304,1.39330435 109.705304,1.30721739 C109.705304,1.21982609 109.671391,1.13765217 109.608783,1.07634783 L108.79487,0.265043478 C108.669652,0.137217391 108.462261,0.137217391 108.334435,0.265043478 L89.3509565,19.2485217 L84.3722609,0.666782609 C84.290087,0.358956522 84.0461739,0.116347826 83.7396522,0.0315652174 C83.4292174,-0.0519130435 83.1005217,0.0315652174 82.8644348,0.265043478 L73.0883478,10.0424348 L0.326608696,10.0424348 C0.145304348,10.0424348 0.00052173913,10.1885217 0.00052173913,10.3685217 L0.00052173913,11.5202609 C0.00052173913,11.7002609 0.145304348,11.8463478 0.326608696,11.8463478 L71.2831304,11.8463478 L62.7774783,20.352 C62.7174783,20.4133043 62.6822609,20.4967826 62.6822609,20.5828696 C62.6822609,20.6689565 62.7174783,20.7537391 62.7787826,20.8150435 L63.5926957,21.6250435 C63.7205217,21.7502609 63.9266087,21.7515652 64.0531304,21.6237391 L83.0366087,2.64026087 L88.0166087,21.222 C88.100087,21.5324348 88.3426957,21.7750435 88.6413913,21.8546087 C88.7196522,21.878087 88.8018261,21.8898261 88.8853043,21.8898261 C89.1266087,21.8898261 89.3522609,21.795913 89.5231304,21.6237391 L99.3005217,11.8463478 L179.297478,11.8463478 C179.477478,11.8463478 179.623565,11.7002609 179.623565,11.5202609 L179.623565,10.3685217 C179.623565,10.1885217 179.477478,10.0424348 179.297478,10.0424348" id="Fill-1" fill="#F4F0E9" mask="url(#mask-2)"></path>
    </g>
</svg>