<svg xmlns="http://www.w3.org/2000/svg" viewBox="0 0 120 137.1134"><title>Untitled-3</title><path d="M117.1356,33.4238L62.2633,1.7489a4.5274,4.5274,0,0,0-4.5267,0L2.8644,33.4238A3.7387,3.7387,0,0,0,1,36.6528v63.798a3.7388,3.7388,0,0,0,1.8634,3.2284l54.8484,31.685a4.5274,4.5274,0,0,0,4.5267.0006l54.7779-31.7485a3.7406,3.7406,0,0,0,1.8588-3.2184L119,36.6554A3.74,3.74,0,0,0,117.1356,33.4238Z" fill="#e85740"/><path d="M52.8552,9.8559a0.3936,0.3936,0,0,0,.1971-0.053L56.943,7.5571a0.395,0.395,0,0,0-.395-0.6841L52.6573,9.1189A0.395,0.395,0,0,0,52.8552,9.8559Z" fill="#f4f0e9"/><path d="M27.3377,24.5858a0.3936,0.3936,0,0,0,.1971-0.053L49.73,11.7205a0.395,0.395,0,1,0-.3949-0.6841L27.14,23.8488A0.395,0.395,0,0,0,27.3377,24.5858Z" fill="#f4f0e9"/><path d="M4.77,37.6127a0.3936,0.3936,0,0,0,.1971-0.053l18.053-10.421a0.395,0.395,0,0,0-.395-0.6841L4.5726,36.8757A0.395,0.395,0,0,0,4.77,37.6127Z" fill="#f4f0e9"/><path d="M57.0876,11.181a0.3952,0.3952,0,0,0-.54-0.1446L46.2964,16.9541l0.79,0.4561,9.8566-5.69A0.395,0.395,0,0,0,57.0876,11.181Z" fill="#f4f0e9"/><path d="M56.4657,15.2622a0.4013,0.4013,0,0,0-.1151.28,0.3457,0.3457,0,0,0,.0079.0768,0.3367,0.3367,0,0,0,.0225.0745,0.3894,0.3894,0,0,0,.0361.0677,0.4191,0.4191,0,0,0,.0485.06,0.4364,0.4364,0,0,0,.0609.05,0.4821,0.4821,0,0,0,.0677.0361,0.333,0.333,0,0,0,.0745.0226,0.3482,0.3482,0,0,0,.0767.0079,0.3968,0.3968,0,0,0,.395-0.395,0.3974,0.3974,0,0,0-.1162-0.28A0.41,0.41,0,0,0,56.4657,15.2622Z" fill="#f4f0e9"/><path d="M53.4338,16.9976l-4.1432,2.3916v0.9121l4.5382-2.62A0.395,0.395,0,1,0,53.4338,16.9976Z" fill="#f4f0e9"/><path d="M4.5726,45.2025a0.395,0.395,0,1,0,.395.6841l3.3785-1.95v1.4441a0.4,0.4,0,0,0,.0657.22,0.41,0.41,0,0,0,.3411.1864,0.4028,0.4028,0,0,0,.2025-0.055l0.6093-.3517,0.6792-.3921,0.12-.0691,0.9106-.5257,0.8432-.4867h0l0.9106-.5257,0.3614-.2086h0l1.4714-.8494,1.9261-1.1118L17.379,40.87l0.9106-.5257,0.8432-.4867h0l0.8-.4618,1.4019-.8093a0.8419,0.8419,0,0,1,.1014-0.05c0.0109-.0045.0221-0.0072,0.0331-0.0112,0.0234-.0084.0467-0.0171,0.07-0.0232,0.0135-.0035.0271-0.0052,0.0406-0.008,0.0211-.0043.0422-0.0091,0.0633-0.0117,0.0148-.0018.03-0.0019,0.0443-0.0028,0.02-.0013.04-0.0032,0.06-0.0029l0.0231,0.0011c0.0241,0.001.048,0.0029,0.0718,0.006l0.03,0.0044c0.0233,0.0039.0464,0.0089,0.0691,0.0148l0.0228,0.0057a0.8257,0.8257,0,0,1,.0869.03L22.07,38.5479c0.0222,0.01.0439,0.0206,0.065,0.0324l0.026,0.0151,0.0053,0.0035,0,0a0.807,0.807,0,0,1,.3473.4372l-0.0023-.0023,0.008,0.0225,0.0078,0.0293q0.0089,0.0349.0148,0.0713l0.0047,0.03a0.8418,0.8418,0,0,1,.007.1034v37.065a0.4113,0.4113,0,0,0,.0119.0955L12.0085,82.5445h0L4.5726,86.8369a0.395,0.395,0,1,0,.395.6841l7.4357-4.2923,10.5226-6.0742a1.6256,1.6256,0,0,1-.3068-0.5791,0.41,0.41,0,0,0,.3412.1865,0.403,0.403,0,0,0,.2025-0.055l7.262-4.192a0.8107,0.8107,0,0,0,.32-0.344l0.0025-.0051a0.81,0.81,0,0,0,.0833-0.3545V71.4266h0V69.483h0V68.66h0V66.7168h0V65.8943h0V63.9506h0V63.128h0V61.1844h0V60.3618h0V58.4182h0V57.5956h0V55.652h0V54.8295h0V52.8858h0V52.0632h0V50.12h0V49.297h0V47.3534h0V46.5309h0V44.5872h0V43.7647h0V41.821h0V40.9985h0V39.0548h0V38.2323h0V36.2886h0V35.4661h0V33.5738c0-.0163.0022-0.0321,0.0032-0.0482h0a0.8111,0.8111,0,0,1,.4031-0.6554l0.172-.0993h0l0.9107-.5257,0.6991-.4036h0L36.4167,29.88h0l0.2541-.1467h0l0.9107-.5257,0.8431-.4867,0.9107-.5257,0.2271-.1311,0.3908-.2256,5.0312-2.9043a0.8125,0.8125,0,0,0,.4063-0.7037V17.1348A0.4054,0.4054,0,0,0,45.004,16.73l-0.02-.002a0.4031,0.4031,0,0,0-.2025.055l-5.8838,3.3964L20.0922,31.0347l-0.2294.1324-0.7112.4106-0.8432.4867-0.9106.5257-0.6806.3929L13.32,34.9442h0l-0.2727.1574h0l-0.9106.5257-0.8432.4867h0l-0.9106.5257-0.2086.12-1.4215.8206c-0.01.006-.02,0.0134-0.03,0.02a0.8071,0.8071,0,0,0-.3766.6838v0.5767L4.5727,41.0391a0.395,0.395,0,1,0,.3949.6841l3.3785-1.95v3.2513Zm7.8138-6.559-0.6649.6649-0.6649-.6649,0.6649-.6649Zm1.6518-2.5507,0.8432-.4867,0.2712,0.2712-0.6649.665Zm5.2636-1.5986-0.6649.665-0.6649-.6649,0.665-.665ZM28.3186,29.68l0.6649,0.6649-0.6649.6649-0.6649-.6649Zm6.9154-4.1493,0.6649,0.6649-0.6649.6649-0.6649-.6649Zm3.4311-2.1013L38,24.0944l-0.6649-.6649L38,22.7646Zm2.1013-.6649,0.6649,0.6649-0.6649.6649-0.6649-.6649Zm1.3831-1.3831,0.6649,0.6649-0.6649.6649-0.6649-.6649Zm-2.1013,3.4311-0.6649.6649-0.6649-.6649,0.6649-.6649Zm-2.7129,1.3831L38,25.5307l0.6649,0.6649L38,26.8606Zm-0.7182-2.0481,0.6649,0.6649-0.6649.6649-0.6649-.6649Zm-0.9376,4.5948-0.8431.4867-0.2673-.2673,0.6649-.6649Zm-6.696,7.1349-0.6649.6649-0.6649-.6649,0.6649-.6649Zm0,2.7662-0.6649.6649-0.6649-.6649,0.6649-.6649Zm0,2.7662-0.6649.6649L27.6537,41.41l0.6649-.6649Zm0,2.7662-0.665.665-0.6649-.665,0.665-.665Zm0,2.7662-0.6649.6649-0.665-.665,0.6649-.6649Zm0,2.7661-0.665.665-0.6649-.6649,0.665-.665Zm0,2.7662-0.6649.665-0.665-.665,0.6649-.665Zm0,2.7662-0.6649.6649-0.665-.665,0.6649-.6649Zm0,2.7662-0.665.665-0.6649-.6649,0.665-.665Zm0,2.7662-0.665.665-0.665-.665,0.665-.665Zm0,2.7662-0.665.665-0.665-.665,0.665-.665Zm0,2.7662-0.6649.6649-0.665-.665,0.6649-.6649Zm0,2.7661-0.665.665-0.6649-.6649,0.665-.665ZM26.9355,71.12l-0.6649-.6649,0.665-.665L27.6,70.4548ZM22.1213,35.8774l0.6649-.6649,0.6649,0.6649-0.6649.6649Zm1.3831-4.1493,0.6649-.6649,0.6649,0.6649-0.6649.6649Zm2.7129,1.3831-0.6649.6649-0.6649-.6649,0.6649-.6649ZM27.6,34.4943l-0.6649.6649-0.6649-.6649,0.6649-.6649Zm0,2.7662-0.6649.6649L26.2705,37.26l0.6649-.6649Zm0,2.7662-0.6649.665-0.6649-.6649,0.6649-.6649Zm0,2.7662-0.665.665-0.6649-.6649,0.6649-.665Zm0,2.7662-0.6649.6649-0.6649-.665,0.6649-.6649Zm0,2.7662-0.665.665-0.665-.665,0.665-.665Zm0,2.7662-0.665.665-0.6649-.6649,0.6649-.665Zm0,2.7662-0.6649.6649-0.665-.665,0.6649-.6649Zm0,2.7662-0.665.665-0.665-.665,0.665-.665Zm0,2.7662-0.665.665L26.2705,59.39l0.665-.665Zm0,2.7662-0.665.665-0.665-.665,0.665-.665Zm0,2.7662-0.6649.6649-0.665-.665,0.6649-.6649Zm0,2.7662-0.665.665-0.665-.665,0.665-.665Zm-2.0481,2.0481-0.665-.665,0.6649-.665,0.665,0.665ZM24.8342,73.221l-0.6649.6649-0.2618-.2618V72.8178l0.2618-.2618ZM24.1693,71.12l-0.2618-.2618V70.0516l0.2618-.2618,0.665,0.665Zm0.7182-35.2424,0.6649-.6649,0.6649,0.6649-0.6649.6649Zm0.6649,2.1013,0.6649,0.6649-0.6649.6649-0.6649-.6649ZM26.2173,41.41l-0.6649.665L24.8874,41.41l0.665-.665Zm0,2.7662-0.6649.6649-0.6649-.6649,0.6649-.6649Zm0,2.7662-0.665.665-0.6649-.665,0.6649-.665Zm0,2.7662-0.6649.665-0.665-.665,0.6649-.665Zm0,2.7662-0.6649.6649-0.6649-.6649,0.6649-.6649Zm0,2.7662-0.6649.665-0.665-.665,0.6649-.665Zm0,2.7662-0.665.665-0.6649-.665,0.6649-.665Zm0,2.7662-0.6649.665-0.6649-.6649,0.6649-.665Zm0,2.7662-0.6649.6649-0.665-.665,0.6649-.6649Zm0,2.7662-0.665.665-0.665-.665,0.665-.665ZM24.8342,40.0266l-0.665.665L23.9075,40.43V39.6235l0.2618-.2618Zm-0.6649,2.1013,0.6649,0.6649-0.6649.6649-0.2618-.2618V42.39Zm0,2.7662,0.6649,0.6649-0.665.665-0.2618-.2618V45.1559Zm0,2.7662,0.665,0.665-0.665.665-0.2618-.2618V47.922Zm0,2.7662,0.665,0.665-0.6649.6649-0.2618-.2618V50.6882Zm0,2.7662,0.6649,0.6649-0.665.665-0.2618-.2618V53.4545Zm0,2.7662,0.665,0.665-0.665.665-0.2618-.2618V56.2206Zm0,2.7662,0.665,0.665-0.665.665-0.2618-.2618V58.9868Zm0,2.7662,0.6649,0.6649-0.6649.6649-0.2618-.2618V61.753Zm0,2.7661,0.665,0.665-0.665.665-0.2618-.2618V64.5192Zm0,2.7662,0.665,0.665-0.6649.665-0.2618-.2618V67.2854Zm0-33.1943,0.6649,0.6649-0.6649.6649-0.6649-.6649Zm0,2.7662L24.8342,37.26l-0.6649.6649L23.5044,37.26Zm0.7181,35.2424,0.665-.665,0.6649,0.6649-0.665.665Zm3.4311-38.0618-0.6649-.6649,0.6649-.6649,0.6649,0.6649Zm0.7181-2.048,0.6649-.6649,0.6649,0.6649-0.6649.6649ZM30.42,30.345l0.6649-.6649L31.75,30.345l-0.6649.6649Zm0-2.7662,0.6649-.6649L31.75,27.5788l-0.6649.6649Zm2.7129,1.3831-0.6649.6649-0.6649-.6649,0.6649-.6649ZM33.8509,29.68l0.0748,0.0748-0.3537.2042Zm0.6649-2.1013-0.6649.6649-0.6649-.6649,0.6649-.6649Zm-2.048-.7182-0.6649-.6649,0.6649-.6649,0.6649,0.6649Zm-2.1013,2.1013-0.6649.6649-0.6649-.6649,0.6649-.6649ZM27.6,31.7281l-0.6649.6649-0.6649-.6649,0.6649-.6649Zm-2.048-.7182-0.6649-.6649,0.6649-.6649,0.6649,0.6649Zm-2.1013,2.1013-0.6649.6649-0.6649-.6649,0.6649-.6649ZM22.068,34.4942l-0.6649.6649-0.6649-.6649,0.6649-.6649ZM20.685,35.8773l-0.6649.665-0.6649-.6649,0.6649-.665ZM11.0566,41.41l0.6649-.6649L12.3864,41.41l-0.6649.6649ZM9.7,40.0534V40l0.6382-.6382,0.6649,0.6649-0.6649.6649Zm4.9336,0.8376-0.6914.3991,0.5453-.5453Zm0.572-.8643,0.6649-.6649,0.5169,0.5169-0.8432.4867Zm0-2.7662,0.6649-.665L16.5357,37.26l-0.6649.665Zm2.7129-1.3831-0.6649.6649-0.6649-.6649,0.6649-.6649ZM19.3019,37.26l-0.6649.6649L17.972,37.26l0.6649-.6649Zm-2.048.7182,0.6649,0.6649-0.665.665-0.6649-.6649Zm-1.3831-2.8194L15.7921,35.08l0.3723-.2149Zm-1.3831,2.8194,0.6649,0.6649-0.6649.6649-0.6649-.6649ZM13.77,40.0266l-0.6649.6649L12.44,40.0266l0.6649-.6649Zm-3.4865,3.3758L9.7,42.82V42.7661l0.6382-.6382,0.6649,0.6649-0.4585.4585Zm11.4567-6.28a2.1623,2.1623,0,0,0-.9283.2115L20.7382,37.26l0.6649-.665L21.94,37.1324C21.874,37.1263,21.8074,37.1223,21.74,37.1223Zm4.6121,36.18L26.27,73.221l0.665-.665,0.26,0.26ZM28.1058,72.29l-0.4522-.4522,0.665-.665,0.63,0.63Zm1.3712-1.395-0.44-.44,0.44-.44V70.895Zm0-2.7662-0.44-.44,0.44-.44v0.88Zm0-2.7661-0.44-.44,0.44-.44v0.8805Zm0-2.7662-0.44-.44,0.44-.44v0.8805Zm0-2.7662-0.44-.44,0.44-.44v0.88Zm0-2.7662-0.44-.44,0.44-.44v0.88Zm0-2.7662-0.44-.44,0.44-.44v0.88Zm0-2.7662-0.44-.44,0.44-.44v0.8805Zm0-2.7662-0.44-.44,0.44-.44v0.88Zm0-2.7661-0.44-.44,0.44-.44v0.8805Zm0-2.7662-0.44-.44,0.44-.44v0.88Zm0-2.7662-0.44-.44,0.44-.44v0.88Zm0-2.7662-0.44-.44,0.44-.44v0.88Zm0-2.7662-0.44-.44,0.44-.44v0.88ZM36.59,28.2168l-0.638-.638,0.6649-.6649,0.6649,0.6649-0.5644.5644Zm3.525-2.0348,0.6512-.6512,0.1746,0.1746ZM41.8515,25.18l-0.367-.367,0.6649-.6649,0.5453,0.5453ZM44.0366,23.59l-0.5041.5041-0.6649-.6649,0.6649-.6649,0.5041,0.5041V23.59Zm0-2.7662-0.5041.5041-0.6649-.6649,0.6649-.6649,0.5041,0.5041v0.3217Zm-1.6994-1.0667-0.1877.1877-0.05-.05Zm-1.1487.6631,0.2428,0.2428-0.6649.6649-0.421-.421Zm-1.7538,1.0124,0.6135,0.6135-0.6649.6649-0.6649-.6649,0.4731-.4731Zm-3.6407,2.1016-0.56.56-0.15-.15Zm-1.6207.9355,0.3426,0.3426-0.6649.6649L33.33,24.9567Zm-5.2614,3.0371,0.0716,0.0716-0.6649.6649-0.25-.25ZM27.158,28.52L27.6,28.9619l-0.6649.6649-0.6206-.6206Zm-5.2614,3.0371,0.1714,0.1714-0.6649.6649-0.35-.35ZM20.1428,32.569l0.5421,0.5421-0.6649.6649-0.6649-.6649,0.2068-.2068Zm-7.0152,4.05L13.7695,37.26l-0.6649.6649L12.44,37.26l0.5791-.5791Z" fill="#f4f0e9"/><path d="M56.548,19.3633l-7.2574,4.1893v0.9121l7.6523-4.4173A0.395,0.395,0,1,0,56.548,19.3633Z" fill="#f4f0e9"/><path d="M4.77,50.103a0.3936,0.3936,0,0,0,.1971-0.053l5.1243-2.958-0.79-.4561-4.7293,2.73A0.395,0.395,0,0,0,4.77,50.103Z" fill="#f4f0e9"/><path d="M56.548,23.5267L43.4283,31.1a0.395,0.395,0,1,0,.395.6841l13.12-7.5733A0.395,0.395,0,1,0,56.548,23.5267Z" fill="#f4f0e9"/><path d="M40.2251,33.4051a0.3951,0.3951,0,0,0-.54-0.1446l-4.9546,2.86v0.9121l5.35-3.088A0.395,0.395,0,0,0,40.2251,33.4051Z" fill="#f4f0e9"/><path d="M4.77,54.2665a0.3936,0.3936,0,0,0,.1971-0.053L22.5534,44.0622V43.15L4.5726,53.5294A0.395,0.395,0,0,0,4.77,54.2665Z" fill="#f4f0e9"/><path d="M56.548,27.69L34.7309,40.284v0.9121L56.943,28.3743A0.395,0.395,0,1,0,56.548,27.69Z" fill="#f4f0e9"/><path d="M6.536,57.4108a0.3936,0.3936,0,0,0,.1971-0.053l15.82-9.1323V47.3135l-16.2153,9.36A0.395,0.395,0,0,0,6.536,57.4108Z" fill="#f4f0e9"/><path d="M4.4051,58.1857a0.5017,0.5017,0,0,0,.0361.0689,0.4224,0.4224,0,0,0,.05.06,0.3964,0.3964,0,0,0,.5586,0,0.3548,0.3548,0,0,0,.0485-0.06,0.4057,0.4057,0,0,0,.0372-0.0689,0.4183,0.4183,0,0,0,.0214-0.0733,0.3805,0.3805,0,0,0,0-.1546,0.4614,0.4614,0,0,0-.0214-0.0744,0.3954,0.3954,0,0,0-.0372-0.0677,0.3526,0.3526,0,0,0-.0485-0.06,0.3992,0.3992,0,0,0-.3566-0.1084A0.427,0.427,0,0,0,4.62,57.67a0.445,0.445,0,0,0-.0689.0361,0.4265,0.4265,0,0,0-.06.05,0.4193,0.4193,0,0,0-.05.06,0.4882,0.4882,0,0,0-.0361.0677,0.467,0.467,0,0,0-.0225.0744,0.3831,0.3831,0,0,0,0,.1546A0.422,0.422,0,0,0,4.4051,58.1857Z" fill="#f4f0e9"/><path d="M56.548,31.8536L49.3355,36.017a0.395,0.395,0,1,0,.395.6841l7.2125-4.1634A0.395,0.395,0,1,0,56.548,31.8536Z" fill="#f4f0e9"/><path d="M4.428,62.3958a0.3947,0.3947,0,0,0,.54.1446L22.5534,52.389V51.4769L4.5726,61.8563A0.395,0.395,0,0,0,4.428,62.3958Z" fill="#f4f0e9"/><path d="M46.6444,38.0265a0.3951,0.3951,0,0,0-.54-0.1446L34.7309,44.4475V45.36L46.5,38.566A0.395,0.395,0,0,0,46.6444,38.0265Z" fill="#f4f0e9"/><path d="M4.428,66.5593a0.3947,0.3947,0,0,0,.54.1446L22.5534,56.5524V55.64L4.5727,66.02A0.395,0.395,0,0,0,4.428,66.5593Z" fill="#f4f0e9"/><path d="M56.548,36.017L34.7309,48.6109V49.523l22.212-12.8218A0.395,0.395,0,1,0,56.548,36.017Z" fill="#f4f0e9"/><path d="M56.5481,40.18L34.7309,52.7743v0.9121l22.212-12.8218A0.3949,0.3949,0,1,0,56.5481,40.18Z" fill="#f4f0e9"/><path d="M18.8531,62.3958a0.3947,0.3947,0,0,0,.54.1446l3.1607-1.8245V59.8038l-3.5557,2.0525A0.395,0.395,0,0,0,18.8531,62.3958Z" fill="#f4f0e9"/><path d="M4.428,70.7227a0.3947,0.3947,0,0,0,.54.1446L16.53,64.1928a0.395,0.395,0,0,0-.3949-0.6841L4.5726,70.1832A0.395,0.395,0,0,0,4.428,70.7227Z" fill="#f4f0e9"/><path d="M56.548,44.3439L42.7146,52.3292a0.395,0.395,0,1,0,.3949.6841L56.943,45.028A0.395,0.395,0,0,0,56.548,44.3439Z" fill="#f4f0e9"/><path d="M4.428,74.8861a0.3947,0.3947,0,0,0,.54.1446L22.5534,64.8793V63.9672L4.5726,74.3466A0.395,0.395,0,0,0,4.428,74.8861Z" fill="#f4f0e9"/><path d="M39.6117,54.5764a0.3951,0.3951,0,0,0-.54-0.1446l-4.3413,2.506V57.85l4.7362-2.734A0.395,0.395,0,0,0,39.6117,54.5764Z" fill="#f4f0e9"/><path d="M4.428,79.05a0.3947,0.3947,0,0,0,.54.1446L22.5534,69.0428V68.1307L4.5727,78.51A0.395,0.395,0,0,0,4.428,79.05Z" fill="#f4f0e9"/><path d="M56.548,48.5074L34.7309,61.1012v0.9121l22.212-12.8218A0.395,0.395,0,1,0,56.548,48.5074Z" fill="#f4f0e9"/><path d="M56.548,52.6708L34.7309,65.2647v0.9121l22.212-12.8218A0.395,0.395,0,1,0,56.548,52.6708Z" fill="#f4f0e9"/><path d="M4.428,83.213a0.3947,0.3947,0,0,0,.54.1446L22.5534,73.2062V72.2941L4.5727,82.6735A0.395,0.395,0,0,0,4.428,83.213Z" fill="#f4f0e9"/><path d="M56.548,56.8342L34.7309,69.4281V70.34l22.212-12.8218A0.395,0.395,0,1,0,56.548,56.8342Z" fill="#f4f0e9"/><path d="M56.548,60.9977l-4.35,2.5111a0.395,0.395,0,1,0,.395.6841l4.35-2.5111A0.3949,0.3949,0,1,0,56.548,60.9977Z" fill="#f4f0e9"/><path d="M4.77,91.7374a0.3931,0.3931,0,0,0,.1971-0.053l21.71-12.5322a0.8117,0.8117,0,0,1-.6307-0.0763L25.6386,78.84,4.5726,91A0.395,0.395,0,0,0,4.77,91.7374Z" fill="#f4f0e9"/><path d="M49.5125,65.5149a0.3949,0.3949,0,0,0-.5395-0.1446L34.7309,73.5915v0.4716a0.8117,0.8117,0,0,1-.2494.5845L49.368,66.0544A0.395,0.395,0,0,0,49.5125,65.5149Z" fill="#f4f0e9"/><path d="M56.5481,65.161L17.6192,87.6326,4.5726,95.1638a0.395,0.395,0,1,0,.395.6841l13.0466-7.5311,0,0L56.943,65.8452A0.395,0.395,0,0,0,56.5481,65.161Z" fill="#f4f0e9"/><path d="M63.2544,7.61a0.349,0.349,0,0,0,.0768-0.0079A0.4018,0.4018,0,0,0,63.4056,7.58a0.4821,0.4821,0,0,0,.0677-0.0361,0.5061,0.5061,0,0,0,.0609-0.05,0.3964,0.3964,0,0,0,0-.5586,0.5016,0.5016,0,0,0-.0609-0.0485,0.3247,0.3247,0,0,0-.0677-0.0361,0.3353,0.3353,0,0,0-.0744-0.0225A0.3947,0.3947,0,1,0,63.2544,7.61Z" fill="#f4f0e9"/><path d="M65.9639,9.2351l1.9676,1.1358a0.395,0.395,0,0,0,.395-0.6841L66.3588,8.551A0.395,0.395,0,1,0,65.9639,9.2351Z" fill="#f4f0e9"/><path d="M70.9867,12.1345l3.8668,2.2321a0.395,0.395,0,1,0,.395-0.6841L71.3816,11.45A0.395,0.395,0,1,0,70.9867,12.1345Z" fill="#f4f0e9"/><path d="M77.7312,16.0278l5.73,3.3078a0.395,0.395,0,1,0,.395-0.6841l-5.73-3.3078A0.395,0.395,0,1,0,77.7312,16.0278Z" fill="#f4f0e9"/><path d="M87.1753,21.4793l7.819,4.5135a0.395,0.395,0,1,0,.395-0.6841L87.57,20.7952A0.395,0.395,0,0,0,87.1753,21.4793Z" fill="#f4f0e9"/><path d="M99.4011,28.5366l12.2973,7.0986a0.395,0.395,0,0,0,.395-0.6841L99.796,27.8525A0.395,0.395,0,0,0,99.4011,28.5366Z" fill="#f4f0e9"/><path d="M115.1524,36.83a0.5539,0.5539,0,0,0-.0734.0226,0.4052,0.4052,0,0,0-.0688.0372,0.3526,0.3526,0,0,0-.06.0485,0.3964,0.3964,0,0,0,0,.5586,0.4193,0.4193,0,0,0,.06.05,0.501,0.501,0,0,0,.0688.0361,0.4226,0.4226,0,0,0,.0734.0225,0.455,0.455,0,0,0,.0779.0079,0.395,0.395,0,0,0,.2787-0.6749A0.4024,0.4024,0,0,0,115.1524,36.83Z" fill="#f4f0e9"/><path d="M62.9124,11.181a0.395,0.395,0,0,0,.1446.54L64.5,12.5536a0.395,0.395,0,0,0,.395-0.6841l-1.4431-.8331A0.3952,0.3952,0,0,0,62.9124,11.181Z" fill="#f4f0e9"/><path d="M70.5187,16.0278a0.395,0.395,0,0,0,.395-0.6841l-4.2426-2.449a0.3949,0.3949,0,0,0-.3948.6841Z" fill="#f4f0e9"/><path d="M81.9426,21.71l-8.9681-5.1768a0.395,0.395,0,1,0-.395.6841L80.89,22.0147A6.2457,6.2457,0,0,1,81.9426,21.71Z" fill="#f4f0e9"/><path d="M115.4274,41.0391L103.2846,34.03q0.225,0.3107.4411,0.6254,0.2972,0.4344.5721,0.8716l10.7347,6.1966A0.395,0.395,0,0,0,115.4274,41.0391Z" fill="#f4f0e9"/><path d="M62.9124,15.3445a0.3949,0.3949,0,0,0,.1446.5395l3.1143,1.7977a0.3949,0.3949,0,1,0,.3948-0.6841L63.4519,15.2A0.3949,0.3949,0,0,0,62.9124,15.3445Z" fill="#f4f0e9"/><path d="M115.23,45.94a0.395,0.395,0,0,0,.1979-0.7371l-8.8585-5.1135q0.2073,0.5656.3772,1.13l8.0863,4.6678A0.3935,0.3935,0,0,0,115.23,45.94Z" fill="#f4f0e9"/><path d="M78.3835,23.819l-8.5572-4.94a0.395,0.395,0,1,0-.3949.6841l8.3644,4.8284C77.9938,24.196,78.1916,24.0029,78.3835,23.819Z" fill="#f4f0e9"/><path d="M62.89,19.856a0.4985,0.4985,0,0,0,.0361.0689,0.359,0.359,0,0,0,.05.06,0.395,0.395,0,0,0,.5574,0,0.3593,0.3593,0,0,0,.05-0.06,0.402,0.402,0,0,0,.0361-0.0689,0.3447,0.3447,0,0,0,.0226-0.0733,0.3661,0.3661,0,0,0,.0079-0.0779,0.393,0.393,0,0,0-.1163-0.2787,0.4081,0.4081,0,0,0-.5574,0,0.3932,0.3932,0,0,0-.1162.2787,0.3661,0.3661,0,0,0,.0079.0779A0.3447,0.3447,0,0,0,62.89,19.856Z" fill="#f4f0e9"/><path d="M107.6558,44.88c0.0262,0.3153.0437,0.6293,0.0508,0.9414l3.7051,2.1388a0.395,0.395,0,0,0,.3949-0.6841Z" fill="#f4f0e9"/><path d="M65.964,21.7254L75.2911,27.11a5.6821,5.6821,0,0,1,.3681-0.4885c0.0328-.0389.074-0.0861,0.1225-0.14l-9.4228-5.4393A0.395,0.395,0,0,0,65.964,21.7254Z" fill="#f4f0e9"/><path d="M115.5948,49.5566a0.4882,0.4882,0,0,0-.0361-0.0677,0.4225,0.4225,0,0,0-.1094-0.1095,0.4879,0.4879,0,0,0-.0677-0.0361,0.4676,0.4676,0,0,0-.0745-0.0225,0.3944,0.3944,0,0,0-.1546,0,0.4226,0.4226,0,0,0-.0734.0225,0.5007,0.5007,0,0,0-.0688.0361,0.4234,0.4234,0,0,0-.06.05,0.35,0.35,0,0,0-.0485.06,0.3954,0.3954,0,0,0-.0372.0677,0.4029,0.4029,0,0,0-.0214.0745,0.3482,0.3482,0,0,0-.0079.0767,0.393,0.393,0,0,0,.395.395,0.3482,0.3482,0,0,0,.0767-0.0079,0.3729,0.3729,0,0,0,.0745-0.0226,0.327,0.327,0,0,0,.0677-0.0361,0.4123,0.4123,0,0,0,.06-0.0485,0.3983,0.3983,0,0,0,.1163-0.28,0.43,0.43,0,0,0-.0079-0.0767A0.4052,0.4052,0,0,0,115.5948,49.5566Z" fill="#f4f0e9"/><path d="M62.9124,23.6713a0.395,0.395,0,0,0,.1446.5395l11.05,6.3784q0.05-.4324.1311-0.8364L63.4519,23.5267A0.3949,0.3949,0,0,0,62.9124,23.6713Z" fill="#f4f0e9"/><path d="M115.4273,53.5294l-7.9293-4.5771q-0.0726.4241-.17,0.8139l7.7044,4.4473A0.3949,0.3949,0,1,0,115.4273,53.5294Z" fill="#f4f0e9"/><path d="M94.6071,42.4231a10.832,10.832,0,0,0-.6233-1.2718l-7.3572-4.2469a9.4252,9.4252,0,0,0,.3142,1.0934Z" fill="#f4f0e9"/><path d="M63.2544,28.4265a0.4313,0.4313,0,0,0,.0768-0.0068,0.5146,0.5146,0,0,0,.0744-0.0226,0.3951,0.3951,0,0,0,.0677-0.0372,0.41,0.41,0,0,0,.0609-0.0485,0.3973,0.3973,0,0,0,.1151-0.28,0.3632,0.3632,0,0,0-.0079-0.0768,0.3457,0.3457,0,0,0-.0226-0.0733,0.4,0.4,0,0,0-.0361-0.0688,0.42,0.42,0,0,0-.0485-0.06,0.41,0.41,0,0,0-.0609-0.0485,0.3917,0.3917,0,0,0-.0677-0.0372,0.5216,0.5216,0,0,0-.0744-0.0226,0.3979,0.3979,0,0,0-.3555.1083,0.3594,0.3594,0,0,0-.05.06,0.4,0.4,0,0,0-.0361.0688,0.3457,0.3457,0,0,0-.0226.0733,0.3632,0.3632,0,0,0-.0079.0768A0.3949,0.3949,0,0,0,63.2544,28.4265Z" fill="#f4f0e9"/><path d="M65.9094,30.0208l8.2914,4.7862q-0.0641-.485-0.1059-0.9732l-7.7905-4.497A0.395,0.395,0,1,0,65.9094,30.0208Z" fill="#f4f0e9"/><path d="M92.2636,44.5319c0.2171,0.1684.4046,0.3138,0.5451,0.4318L94.9621,46.73q0.1292,0.0188.2528,0.0316c0.0222-.2249.0368-0.4631,0.0452-0.71l-3.9593-2.2855C91.6622,44.0653,91.9915,44.3208,92.2636,44.5319Z" fill="#f4f0e9"/><path d="M115.4274,57.6928l-9.2821-5.3581a4.9627,4.9627,0,0,1-.5478.5959l9.435,5.4463A0.395,0.395,0,0,0,115.4274,57.6928Z" fill="#f4f0e9"/><path d="M62.9124,31.9982a0.395,0.395,0,0,0,.1446.54l4.8746,2.8139a0.395,0.395,0,0,0,.395-0.6841l-4.8746-2.8139A0.395,0.395,0,0,0,62.9124,31.9982Z" fill="#f4f0e9"/><path d="M71.9318,36.7486a0.395,0.395,0,0,0-.395.6841l3.9333,2.27q-0.2241-.5723-0.4133-1.1507Z" fill="#f4f0e9"/><path d="M115.4274,61.8563l-11.96-6.9037c-0.0487.0514-.0954,0.1011-0.1371,0.1466q0.4516,0.5926.8677,1.1873l10.8342,6.254A0.395,0.395,0,0,0,115.4274,61.8563Z" fill="#f4f0e9"/><path d="M63.057,36.7011l11.7965,6.8095a0.395,0.395,0,1,0,.395-0.6841L63.4519,36.017A0.395,0.395,0,0,0,63.057,36.7011Z" fill="#f4f0e9"/><path d="M78.21,44.7624a0.3907,0.3907,0,0,0-.0806.6239c0.1067-.0949.2159-0.187,0.33-0.2737Q78.333,44.9379,78.21,44.7624Z" fill="#f4f0e9"/><path d="M115.4274,66.02l-4.4963-2.5955a0.395,0.395,0,1,0-.395.6841l4.4963,2.5955A0.395,0.395,0,0,0,115.4274,66.02Z" fill="#f4f0e9"/><path d="M76.0492,47.4522L65.051,41.1035a0.395,0.395,0,0,0-.395.6841L75.464,48.0265C75.6491,47.8435,75.8475,47.6492,76.0492,47.4522Z" fill="#f4f0e9"/><path d="M115.4273,70.1832l-6.782-3.9149q0.0965,0.5042.1675,1.0088l6.22,3.59A0.3949,0.3949,0,1,0,115.4273,70.1832Z" fill="#f4f0e9"/><path d="M89.2387,55.0846a17.348,17.348,0,0,0-2.5037-.552l5.49,3.1692A30.6448,30.6448,0,0,0,89.2387,55.0846Z" fill="#f4f0e9"/><path d="M63.057,45.028l4.8922,2.824a0.3949,0.3949,0,0,0,.3948-0.6841l-4.8922-2.824A0.3949,0.3949,0,0,0,63.057,45.028Z" fill="#f4f0e9"/><path d="M73.384,50.9893a7.271,7.271,0,0,1,.3145-0.7306l-2.0176-1.1647a0.395,0.395,0,0,0-.395.6841Z" fill="#f4f0e9"/><path d="M95.7116,63.8171a0.3875,0.3875,0,0,0,.38-0.29q-0.0771-.2175-0.1631-0.434L95.9094,63.08,85.2848,56.9469a9.7282,9.7282,0,0,0,.2434,1.0526l9.9863,5.7646A0.3926,0.3926,0,0,0,95.7116,63.8171Z" fill="#f4f0e9"/><path d="M115.4274,74.3466l-6.4231-3.7077c-0.0088.3028-.0258,0.5968-0.0492,0.8837l6.0773,3.5081A0.395,0.395,0,1,0,115.4274,74.3466Z" fill="#f4f0e9"/><path d="M63.057,49.1915L72.78,54.804q0.0021-.46.0293-0.8952l-9.3574-5.4015A0.395,0.395,0,0,0,63.057,49.1915Z" fill="#f4f0e9"/><path d="M108.0783,75.18l2.8193,1.6274a0.395,0.395,0,0,0,.395-0.6841l-2.9172-1.6839Q108.241,74.826,108.0783,75.18Z" fill="#f4f0e9"/><path d="M96.7222,67.9344c0.0058-.07.0092-0.1424,0.0131-0.2143l-8.4708-4.89a17.0533,17.0533,0,0,0,2.8318,2.5468l3.3115,1.9115A7.6,7.6,0,0,0,96.7222,67.9344Z" fill="#f4f0e9"/><path d="M113.8987,78.4919a0.4164,0.4164,0,0,0,.0485.06,0.3593,0.3593,0,0,0,.06.05,0.4,0.4,0,0,0,.0689.036,0.3385,0.3385,0,0,0,.0733.0226,0.3662,0.3662,0,0,0,.0779.0079,0.349,0.349,0,0,0,.0768-0.0079,0.33,0.33,0,0,0,.0744-0.0226,0.3893,0.3893,0,0,0,.0677-0.036,0.36,0.36,0,0,0,.06-0.05,0.4273,0.4273,0,0,0,.05-0.06,0.4842,0.4842,0,0,0,.0361-0.0677,0.41,0.41,0,0,0,.0226-0.0745,0.3485,0.3485,0,0,0,.0079-0.0767,0.4025,0.4025,0,0,0-.1162-0.28,0.3984,0.3984,0,0,0-.3566-0.1071,0.3444,0.3444,0,0,0-.0733.0225,0.3358,0.3358,0,0,0-.0689.0361,0.4224,0.4224,0,0,0-.06.0485,0.4014,0.4014,0,0,0-.1151.28,0.3485,0.3485,0,0,0,.0079.0767,0.335,0.335,0,0,0,.0226.0745A0.3252,0.3252,0,0,0,113.8987,78.4919Z" fill="#f4f0e9"/><path d="M62.89,53.1642a0.39,0.39,0,0,0,.0361.0677,0.4157,0.4157,0,0,0,.0485.06,0.4332,0.4332,0,0,0,.0609.05,0.4821,0.4821,0,0,0,.0677.0361,0.3354,0.3354,0,0,0,.0744.0226,0.3778,0.3778,0,0,0,.1535,0,0.3354,0.3354,0,0,0,.0744-0.0226,0.4821,0.4821,0,0,0,.0677-0.0361,0.4332,0.4332,0,0,0,.0609-0.05,0.42,0.42,0,0,0,.0485-0.06,0.39,0.39,0,0,0,.0361-0.0677,0.3354,0.3354,0,0,0,.0226-0.0744,0.349,0.349,0,0,0,.0079-0.0768,0.4013,0.4013,0,0,0-.1151-0.28,0.4262,0.4262,0,0,0-.0609-0.0485,0.327,0.327,0,0,0-.0677-0.0361,0.3354,0.3354,0,0,0-.0744-0.0226,0.3912,0.3912,0,0,0-.1535,0,0.3354,0.3354,0,0,0-.0744.0226,0.327,0.327,0,0,0-.0677.0361,0.3462,0.3462,0,0,0-.1095.1095,0.39,0.39,0,0,0-.0361.0677,0.3447,0.3447,0,0,0-.0226.0733,0.3661,0.3661,0,0,0-.0079.0779,0.349,0.349,0,0,0,.0079.0768A0.3354,0.3354,0,0,0,62.89,53.1642Z" fill="#f4f0e9"/><path d="M73.0648,58.22l-7.5142-4.3375a0.395,0.395,0,0,0-.395.6841l8.1112,4.6822Q73.1528,58.7349,73.0648,58.22Z" fill="#f4f0e9"/><path d="M115.4274,82.6735l-9.0066-5.199c-0.1709.181-.3611,0.38-0.563,0.5871l9.1745,5.296A0.395,0.395,0,0,0,115.4274,82.6735Z" fill="#f4f0e9"/><path d="M63.4519,56.8342a0.395,0.395,0,1,0-.395.6841l6.0416,3.4875a0.395,0.395,0,1,0,.395-0.6841Z" fill="#f4f0e9"/><path d="M72.5943,63.0237l2.56,1.4779q-0.3117-.62-0.5837-1.2491l-1.5816-.913A0.395,0.395,0,1,0,72.5943,63.0237Z" fill="#f4f0e9"/><path d="M115.4273,86.8369l-10.1-5.83a0.3949,0.3949,0,1,0-.3948.6841l10.1,5.83A0.3949,0.3949,0,1,0,115.4273,86.8369Z" fill="#f4f0e9"/><path d="M78.4042,70.48a0.395,0.395,0,0,0,.1979-0.7371l-15.15-8.7454a0.3949,0.3949,0,1,0-.395.6841l15.15,8.7454A0.393,0.393,0,0,0,78.4042,70.48Z" fill="#f4f0e9"/><path d="M115.4273,91L99.4839,81.797c-0.0665.0015-.1331,0.0029-0.2,0.0029a10.5648,10.5648,0,0,1-1.5981-.129l17.3471,10.0136A0.395,0.395,0,1,0,115.4273,91Z" fill="#f4f0e9"/><path d="M64.1921,65.5894a0.3894,0.3894,0,0,0-.0677-0.036,0.33,0.33,0,0,0-.0745-0.0226,0.3909,0.3909,0,0,0-.1535,0,0.33,0.33,0,0,0-.0745.0226,0.3889,0.3889,0,0,0-.0677.036,0.4161,0.4161,0,0,0-.0609.05,0.3962,0.3962,0,0,0-.1151.2787,0.3478,0.3478,0,0,0,.0079.0767,0.3321,0.3321,0,0,0,.0226.0745,0.3921,0.3921,0,0,0,.0361.0678,0.37,0.37,0,0,0,.0485.0609,0.4921,0.4921,0,0,0,.0609.0485,0.3917,0.3917,0,0,0,.1422.0586,0.3749,0.3749,0,0,0,.1535,0,0.3925,0.3925,0,0,0,.1422-0.0586,0.4119,0.4119,0,0,0,.06-0.0485,0.3252,0.3252,0,0,0,.05-0.0609,0.3924,0.3924,0,0,0,.0361-0.0678,0.3349,0.3349,0,0,0,.0225-0.0745,0.3446,0.3446,0,0,0,.0079-0.0767,0.3964,0.3964,0,0,0-.1151-0.2787A0.4191,0.4191,0,0,0,64.1921,65.5894Z" fill="#f4f0e9"/><path d="M91.3791,81.282l-24.011-13.86a0.395,0.395,0,1,0-.395.6841l24.011,13.86A0.395,0.395,0,1,0,91.3791,81.282Z" fill="#f4f0e9"/><path d="M115.4273,95.1638L95.3814,83.5923a0.395,0.395,0,1,0-.3949.6841l20.0459,11.5715A0.395,0.395,0,1,0,115.4273,95.1638Z" fill="#f4f0e9"/><polygon points="85.358 98.936 85.297 98.901 85.332 98.951 85.358 98.936" fill="#f4f0e9"/><path d="M81.3975,97.4506a0.3385,0.3385,0,0,0,.2881-0.5157l-0.1131-.1842L80.3413,96.04l0.7674,1.2494A0.3383,0.3383,0,0,0,81.3975,97.4506Z" fill="#f4f0e9"/><path d="M82.9677,100.316l0.5865-.3387-0.4506-.7337a0.3385,0.3385,0,1,0-.5769.3544Z" fill="#f4f0e9"/><path d="M76.9341,94.78a0.3388,0.3388,0,0,0,.2993-0.4963l-0.0288-.0547-1.0992-.6346,0.5289,1.0048A0.3385,0.3385,0,0,0,76.9341,94.78Z" fill="#f4f0e9"/><path d="M78.7138,98.55a0.3385,0.3385,0,0,0,.5992-0.3154l-0.7038-1.337a0.3385,0.3385,0,0,0-.5992.3154Z" fill="#f4f0e9"/><path d="M80.4184,101.788l0.5868-.3388-0.4327-.822a0.3385,0.3385,0,0,0-.5992.3154Z" fill="#f4f0e9"/><path d="M74.42,95.9885a0.3386,0.3386,0,0,0,.62-0.272l-1.16-2.6449a0.3386,0.3386,0,0,0-.62.272Z" fill="#f4f0e9"/><path d="M76.1845,100.0124a0.3386,0.3386,0,0,0,.62-0.272l-0.67-1.5267a0.3386,0.3386,0,0,0-.62.272Z" fill="#f4f0e9"/><path d="M77.2573,102.4586l0.4041,0.9215,0.59-.3407-0.374-.8528A0.3386,0.3386,0,0,0,77.2573,102.4586Z" fill="#f4f0e9"/><path d="M70.455,92.4051a0.3388,0.3388,0,0,0,.3195-0.4507L70.142,90.1513l-0.9-.5195,0.8933,2.5467A0.3388,0.3388,0,0,0,70.455,92.4051Z" fill="#f4f0e9"/><path d="M71.8964,97.1989a0.3386,0.3386,0,0,0,.6389-0.2241l-0.84-2.3953a0.3386,0.3386,0,0,0-.6389.2241Z" fill="#f4f0e9"/><path d="M73.3663,101.39a0.3386,0.3386,0,0,0,.6389-0.2241l-0.4838-1.3793a0.3386,0.3386,0,1,0-.6389.2241Z" fill="#f4f0e9"/><path d="M74.589,103.8529a0.3386,0.3386,0,0,0-.2074.4315l0.2887,0.823,0.5967-.3446-0.2464-.7026A0.3387,0.3387,0,0,0,74.589,103.8529Z" fill="#f4f0e9"/><path d="M67.7377,93.0067a0.3385,0.3385,0,0,0,.6548-0.1721l-1.0172-3.8687a0.3385,0.3385,0,1,0-.6548.1721Z" fill="#f4f0e9"/><path d="M69.213,98.6174a0.3385,0.3385,0,1,0,.6548-0.1721l-0.5988-2.2775a0.3385,0.3385,0,0,0-.6548.1721Z" fill="#f4f0e9"/><path d="M70.2926,101.3924a0.3385,0.3385,0,0,0-.2413.4135l0.3688,1.4026a0.3385,0.3385,0,0,0,.6548-0.1721l-0.3688-1.4026A0.3386,0.3386,0,0,0,70.2926,101.3924Z" fill="#f4f0e9"/><path d="M71.4589,105.828a0.3385,0.3385,0,0,0-.2413.4135l0.1962,0.7464,0.6078-.351-0.1492-.5675A0.3385,0.3385,0,0,0,71.4589,105.828Z" fill="#f4f0e9"/><path d="M64.5562,88.5822a0.3452,0.3452,0,0,0,.0588-0.0052,0.3386,0.3386,0,0,0,.2751-0.3919l-0.2077-1.1859-0.7647-.4415,0.3054,1.7443A0.3387,0.3387,0,0,0,64.5562,88.5822Z" fill="#f4f0e9"/><path d="M64.6382,90.672L65.3523,94.75a0.3387,0.3387,0,0,0,.3331.28,0.3452,0.3452,0,0,0,.0588-0.0052,0.3386,0.3386,0,0,0,.2751-0.3919l-0.7141-4.0778A0.3385,0.3385,0,0,0,64.6382,90.672Z" fill="#f4f0e9"/><path d="M65.921,97.9972l0.3952,2.2569a0.3387,0.3387,0,0,0,.3331.28,0.3452,0.3452,0,0,0,.0588-0.0052,0.3386,0.3386,0,0,0,.2751-0.3919L66.5879,97.88A0.3385,0.3385,0,1,0,65.921,97.9972Z" fill="#f4f0e9"/><path d="M67.5655,103.4629a0.3385,0.3385,0,1,0-.6669.1168l0.2543,1.4521a0.3387,0.3387,0,0,0,.3331.28,0.3452,0.3452,0,0,0,.0588-0.0052,0.3386,0.3386,0,0,0,.2751-0.3919Z" fill="#f4f0e9"/><path d="M67.8552,109.0427l0.6243-.36L68.402,108.24a0.3385,0.3385,0,0,0-.6669.1168Z" fill="#f4f0e9"/><path d="M62.374,89.688l0.03-.0013a0.3385,0.3385,0,0,0,.3078-0.3666l-0.318-3.6421-0.7157-.4132,0.3592,4.1142A0.3385,0.3385,0,0,0,62.374,89.688Z" fill="#f4f0e9"/><path d="M62.2544,91.867l0.36,4.1219a0.3385,0.3385,0,0,0,.3369.3091l0.03-.0013a0.3385,0.3385,0,0,0,.3078-0.3666l-0.36-4.1219A0.3385,0.3385,0,0,0,62.2544,91.867Z" fill="#f4f0e9"/><path d="M62.9048,99.3172l0.2359,2.7024a0.3385,0.3385,0,0,0,.3369.3091l0.03-.0013a0.3385,0.3385,0,0,0,.3078-0.3666l-0.2359-2.7024A0.3385,0.3385,0,0,0,62.9048,99.3172Z" fill="#f4f0e9"/><path d="M64.2538,106.9834l-0.1418-1.6239a0.3385,0.3385,0,0,0-.6745.0588l0.1418,1.6239a0.3385,0.3385,0,0,0,.3369.3091l0.03-.0013A0.3385,0.3385,0,0,0,64.2538,106.9834Z" fill="#f4f0e9"/><path d="M64.5978,110.9237L64.5346,110.2a0.3385,0.3385,0,0,0-.6745.0588l0.0907,1.039Z" fill="#f4f0e9"/><path d="M57.5866,89.7589l0.03,0.0013a0.3386,0.3386,0,0,0,.3368-0.3088l0.3713-4.2037-0.7162.4136-0.33,3.7306A0.3384,0.3384,0,0,0,57.5866,89.7589Z" fill="#f4f0e9"/><path d="M56.9951,96.456l0.03,0.0013a0.3386,0.3386,0,0,0,.3368-0.3088L57.75,91.7618a0.3385,0.3385,0,1,0-.6744-0.06L56.6877,96.089A0.3384,0.3384,0,0,0,56.9951,96.456Z" fill="#f4f0e9"/><path d="M56.447,102.66l0.03,0.0013a0.3386,0.3386,0,0,0,.3368-0.3088l0.2586-2.9271a0.3385,0.3385,0,1,0-.6744-0.06L56.14,102.2929A0.3384,0.3384,0,0,0,56.447,102.66Z" fill="#f4f0e9"/><path d="M56.4249,106.7577l0.1137-1.2877a0.3385,0.3385,0,1,0-.6744-0.06l-0.1137,1.2877a0.3384,0.3384,0,0,0,.3074.367l0.03,0.0013A0.3386,0.3386,0,0,0,56.4249,106.7577Z" fill="#f4f0e9"/><path d="M55.807,109.9064a0.3385,0.3385,0,0,0-.367.3075l-0.0632.7151,0.6467,0.3734,0.0909-1.029A0.3384,0.3384,0,0,0,55.807,109.9064Z" fill="#f4f0e9"/><path d="M55.4417,88.2437a0.3376,0.3376,0,0,0,.3921-0.2746l0.2516-1.4281-0.7654.442-0.153.8686A0.3385,0.3385,0,0,0,55.4417,88.2437Z" fill="#f4f0e9"/><path d="M54.2322,95.11a0.3376,0.3376,0,0,0,.3921-0.2746l0.7718-4.3813a0.3385,0.3385,0,0,0-.6668-0.1175l-0.7718,4.3813A0.3385,0.3385,0,0,0,54.2322,95.11Z" fill="#f4f0e9"/><path d="M53.2582,100.64a0.3376,0.3376,0,0,0,.3921-0.2746l0.4474-2.54a0.3385,0.3385,0,0,0-.6668-0.1175l-0.4474,2.54A0.3384,0.3384,0,0,0,53.2582,100.64Z" fill="#f4f0e9"/><path d="M52.4821,105.3866a0.3388,0.3388,0,0,0,.333-0.28l0.2818-1.6a0.3385,0.3385,0,0,0-.6668-0.1175l-0.2818,1.6A0.3394,0.3394,0,0,0,52.4821,105.3866Z" fill="#f4f0e9"/><path d="M51.9679,107.9648a0.3386,0.3386,0,0,0-.3921.2746l-0.0792.4493,0.624,0.36,0.1219-.6921A0.3384,0.3384,0,0,0,51.9679,107.9648Z" fill="#f4f0e9"/><path d="M51.7369,93.6465a0.3379,0.3379,0,0,0,.4137-0.2409L53.2053,89.41a0.3385,0.3385,0,0,0-.6546-0.1728l-1.0548,3.9955A0.3385,0.3385,0,0,0,51.7369,93.6465Z" fill="#f4f0e9"/><path d="M50.085,98.5781a0.3386,0.3386,0,1,0,.6547.1728l0.67-2.5378a0.3386,0.3386,0,0,0-.6547-0.1728Z" fill="#f4f0e9"/><path d="M49.7335,101.2361a0.338,0.338,0,0,0-.4137.2409l-0.4324,1.6382a0.3386,0.3386,0,1,0,.6547.1728l0.4324-1.6382A0.3385,0.3385,0,0,0,49.7335,101.2361Z" fill="#f4f0e9"/><path d="M48.15,105.9084l-0.1943.736,0.6076,0.3508,0.2413-.9141A0.3385,0.3385,0,0,0,48.15,105.9084Z" fill="#f4f0e9"/><path d="M49.4731,92.2554a0.3382,0.3382,0,0,0,.4317-0.2071L50.76,89.6159l-0.9007.52-0.5937,1.6877A0.3385,0.3385,0,0,0,49.4731,92.2554Z" fill="#f4f0e9"/><path d="M47.6317,97.49a0.3382,0.3382,0,0,0,.4317-0.2071l0.8721-2.4793a0.3385,0.3385,0,1,0-.6387-0.2246l-0.8721,2.4793A0.3385,0.3385,0,0,0,47.6317,97.49Z" fill="#f4f0e9"/><path d="M46.43,99.8867l-0.5452,1.55a0.3385,0.3385,0,1,0,.6387.2246l0.5452-1.55A0.3385,0.3385,0,1,0,46.43,99.8867Z" fill="#f4f0e9"/><path d="M45.6174,104.2358a0.3385,0.3385,0,1,0-.6387-0.2246l-0.2674.76,0.5965,0.3444Z" fill="#f4f0e9"/><path d="M45.1822,96.0311a0.3381,0.3381,0,0,0,.4461-0.1737l1.1-2.502a0.3385,0.3385,0,1,0-.62-0.2724l-1.1,2.502A0.3385,0.3385,0,0,0,45.1822,96.0311Z" fill="#f4f0e9"/><path d="M43.2288,99.6339a0.3385,0.3385,0,1,0,.62.2724L44.48,98.4691a0.3385,0.3385,0,1,0-.62-0.2724Z" fill="#f4f0e9"/><path d="M41.7276,103.0486l0.59,0.3406,0.3719-.846a0.3385,0.3385,0,1,0-.62-0.2724Z" fill="#f4f0e9"/><path d="M42.934,94.6768a0.3381,0.3381,0,0,0,.4573-0.1415l0.5036-.9548-1.1006.6355-0.0018.0035A0.3384,0.3384,0,0,0,42.934,94.6768Z" fill="#f4f0e9"/><path d="M40.8965,98.54a0.3381,0.3381,0,0,0,.4573-0.1415l0.7048-1.3364a0.3385,0.3385,0,0,0-.5988-0.3158L40.755,98.0827A0.3384,0.3384,0,0,0,40.8965,98.54Z" fill="#f4f0e9"/><path d="M39.3771,100.6952l-0.4028.7638,0.5868,0.3388,0.4149-.7867A0.3385,0.3385,0,0,0,39.3771,100.6952Z" fill="#f4f0e9"/><path d="M38.4211,97.39a0.3385,0.3385,0,0,0,.4658-0.1109l0.77-1.2512-1.233.712-0.1134.1843A0.3385,0.3385,0,0,0,38.4211,97.39Z" fill="#f4f0e9"/><path d="M37.31,99.8416a0.3385,0.3385,0,0,0-.5767-0.3548l-0.308.5007,0.5866,0.3387Z" fill="#f4f0e9"/><polygon points="34.697 98.892 34.612 98.941 34.648 98.961 34.697 98.892" fill="#f4f0e9"/><polygon points="60.378 84.514 59.987 84.288 59.588 84.518 59.588 90.487 60.378 90.487 60.378 84.514" fill="#f4f0e9"/><rect x="59.5884" y="91.7843" width="0.7899" height="5.8679" fill="#f4f0e9"/><rect x="59.5884" y="99.627" width="0.7899" height="4.0624" fill="#f4f0e9"/><polygon points="60.378 113.36 60.378 111.193 59.588 111.193 59.588 113.361 59.983 113.588 60.378 113.36" fill="#f4f0e9"/><rect x="59.5884" y="106.1155" width="0.7899" height="2.7083" fill="#f4f0e9"/><path d="M59.34,115.24L32.861,99.952l-0.6769.3909,26.8174,15.483a1.9689,1.9689,0,0,0,1.9636,0L87.7861,100.338l-0.677-.3908L60.6266,115.24A1.2905,1.2905,0,0,1,59.34,115.24Z" fill="#f4f0e9"/><path d="M58.8356,81.7893L26.0824,100.703a1.49,1.49,0,0,0,0,2.58l32.75,18.9082a2.3088,2.3088,0,0,0,2.3021,0L93.888,103.2774a1.49,1.49,0,0,0,0-2.58l-32.75-18.9082A2.3085,2.3085,0,0,0,58.8356,81.7893Zm1.6252,1.1726,32.75,18.9082a0.1354,0.1354,0,0,1,0,.2345L60.4576,121.0184a0.95,0.95,0,0,1-.9479,0L26.7595,102.11a0.1353,0.1353,0,0,1,0-.2344L59.5127,82.962A0.9505,0.9505,0,0,1,60.4607,82.962Z" fill="#f4f0e9"/><path d="M118.104,32.8284L62.3017,0.6166a4.6041,4.6041,0,0,0-4.6034,0L1.896,32.8284A3.802,3.802,0,0,0,0,36.1121v64.8793a3.8022,3.8022,0,0,0,1.895,3.2831l55.778,32.222a4.6041,4.6041,0,0,0,4.6035.0007L117.9827,104.21a3.804,3.804,0,0,0,1.89-3.2729L120,36.1147A3.803,3.803,0,0,0,118.104,32.8284ZM2.9115,34.5875L58.7138,2.3758a2.5576,2.5576,0,0,1,.6091-0.2528V67.776L2.0312,100.8369V36.1121A1.7653,1.7653,0,0,1,2.9115,34.5875Zm98.5654,67.3995a0.1275,0.1275,0,0,1-.0677.1173L60.4574,125.7521a0.95,0.95,0,0,1-.9479,0L18.5615,102.1108a0.1353,0.1353,0,0,1,0-.2345L59.5132,78.2285a0.9505,0.9505,0,0,1,.948,0L101.4091,101.87A0.1274,0.1274,0,0,1,101.4768,101.987ZM59.6478,69.9336l0.0029,6.84a2.2945,2.2945,0,0,0-.8148.282L56.89,78.1795,56,72.0385Zm-3.389,8.61L53.4608,80.16l-1.7772-5.63,3.6853-2.1267ZM52.86,80.5065l-2.82,1.6282-2.6649-5.1194L51.083,74.876Zm-3.4064,1.9671L46.63,84.104l-3.5529-4.6083,3.7113-2.1416Zm-3.415,1.972L43.23,86.0677l-4.4412-4.097,3.6973-2.1336Zm-3.4232,1.9768-2.778,1.6041-5.33-3.5855,3.6665-2.1158Zm-3.4307,1.9811L36.453,89.981l-6.2188-3.0739,3.6207-2.0894Zm-3.4367,1.9845-2.674,1.5441-7.108-2.562,3.563-2.0561ZM32.307,92.3751L29.7,93.88l-7.9976-2.05,3.4958-2.0173Zm-3.4449,1.9892L26.33,95.8263l-8.8875-1.5378,3.4212-1.9743ZM25.4148,96.355l-2.4515,1.4157-9.7778-1.0254,3.3413-1.9282Zm-3.4492,1.9918-2.3668,1.3667L8.93,99.2007l3.2568-1.8794Zm-3.45,1.9924-0.6311.3644a1.472,1.472,0,0,0-.706.9515H4.6774l3.1689-1.8287Zm-1.3732,1.5748c-0.0013.0264-.0026,0.0529-0.0026,0.08s0.0012,0.0532.0026,0.08l-0.1379-.08Zm0.0417,0.4424a1.4726,1.4726,0,0,0,.7.9272l0.67,0.3868-11.9995.5768L3.371,102.4089l0.0911-.0526H17.1839Zm2.454,1.94,2.3639,1.3648-11,1.1536-3.363-1.9416ZM23,106.2369l2.4485,1.4136-10.0012,1.73-3.4477-1.99Zm3.3642,1.9423,2.5287,1.46-9.0019,2.3074-3.528-2.0369Zm3.3672,1.944,2.6035,1.5031-8.0025,2.8844-3.6029-2.08Zm3.3709,1.9462,2.6708,1.542-7.003,3.4615-3.67-2.119Zm3.3756,1.9489,2.7287,1.5754-6.0034,4.0387L29.4746,117.48Zm3.3815,1.9523,2.7745,1.6019L37.63,122.1883l-3.7743-2.1791Zm3.3887,1.9565,2.8056,1.62L42.05,124.74l-3.8055-2.1971Zm3.3973,1.9614,2.82,1.6281-3.0038,5.77-3.82-2.2054Zm3.4068,1.9669,2.816,1.6258-2.0037,6.3479-3.8161-2.2032Zm3.4166,1.9725,2.7943,1.6133-1.0035,6.9253-3.7945-2.1908Zm3.4256,1.9778,1.9384,1.1192a2.2929,2.2929,0,0,0,.8183.2825L59.6474,134.9,55.89,132.731Zm3.441,1.3986a2.2932,2.2932,0,0,0,.8-0.28l1.9557-1.1293,1.0024,6.9177L60.3383,134.88Zm3.3866-1.7734,2.7927-1.6126,2.0019,6.3422-3.7922,2.1883Zm3.3933-1.9594,2.8143-1.6251,3.0018,5.7666-3.814,2.2009Zm3.4011-1.964,2.8181-1.6273,4.0019,5.1908-3.8182,2.2033Zm3.41-1.969,2.8038-1.6191,5.0024,4.6147-3.8042,2.1953Zm3.4179-1.9737,2.7726-1.601,6.0032,4.0386L82.3462,122.18Zm3.4253-1.978,2.7266-1.5745L90.5,117.4744l-3.7276,2.151ZM84.2,113.6053l2.6687-1.541,8.0057,2.8856-3.67,2.1177Zm3.436-1.9841,2.6013-1.5021,9.0075,2.3089-3.6027,2.079Zm3.44-1.9862,2.5264-1.4589,10.01,1.7319-3.5281,2.0359Zm3.442-1.9876,2.4461-1.4125,11.012,1.1548-3.448,1.99Zm3.4438-1.9886,2.3615-1.3637,12.0146,0.5775-3.3636,1.941Zm3.445-1.9893,0.68-.3924a1.4727,1.4727,0,0,0,.6988-0.92H116.51l0.0939,0.0542-3.1818,1.8361Zm1.4216-1.762,0.1379,0.08-0.1379.08c0.0014-.0264.0026-0.0529,0.0026-0.08S102.83,101.9338,102.8284,101.9073Zm-0.0346-.2525a1.4722,1.4722,0,0,0-.7076-0.9579l-0.62-.3578,10.6617-.5124,3.1664,1.8281H102.7938Zm-2.411-1.9413L98.0159,98.347l9.774-1.025,3.2545,1.879Zm-3.3646-1.9426-2.4514-1.4153,8.8862-1.5375,3.3392,1.9279ZM93.651,95.827l-2.5317-1.4617,7.9983-2.05,3.42,1.9743Zm-3.37-1.9458-2.6063-1.5047,7.11-2.5628,3.4943,2.0174Zm-3.3737-1.9478L84.2334,90.39l6.2223-3.0756,3.5618,2.0564Zm-3.3785-1.9506L80.797,88.4057l5.3341-3.5884,3.62,2.09Zm-3.3844-1.9539-2.7775-1.6036,4.4458-4.1012L85.4783,84.44Zm-3.3917-1.9582L73.944,84.4491l3.5574-4.6142,3.697,2.1345Zm-3.4-1.9631-2.8228-1.63,2.6689-5.1272L76.91,79.4934Zm-3.41-1.9686-2.8189-1.6275,1.78-5.64,3.7075,2.1405Zm-3.4195-1.9742L63.726,78.55l0.8916-6.1533,3.6859,2.128Zm-3.4285-1.9795-1.9565-1.13a2.2924,2.2924,0,0,0-.8032-0.28l0.0029-6.85,3.6484,2.1064Zm54.7474,22.595L60.677,67.7761V2.1229a2.5581,2.5581,0,0,1,.6092.2529l55.8023,32.2117h0a1.7644,1.7644,0,0,1,.88,1.5232Z" fill="#f4f0e9"/><path d="M95.1464,76.2264c0.1439,0.07.286,0.1366,0.4273,0.2023l0.1145,0.0529q0.6631,0.3054,1.2872.5558l0.0994,0.04c0.137,0.0543.2729,0.1072,0.407,0.1576l0.0189,0.007c0.1273,0.0477.2529,0.0932,0.3777,0.1375l0.0977,0.0343q0.17,0.0592.3363,0.1143l0.0547,0.0183q0.1917,0.0626.3793,0.1195l0.08,0.0238q0.1528,0.0457.3029,0.0876l0.0857,0.0239c0.1217,0.0333.2424,0.0653,0.3615,0.095l0.03,0.0073q0.1625,0.04.3215,0.0756L99.9772,77.99l0,0q0.5467,0.1206,1.0546.1888l0.0761,0.01,0.0036,0c0.1056,0.0135.21,0.0256,0.3131,0.0358l0.0447,0.0039q0.1333,0.0126.2638,0.0214l0.0849,0.0054q0.1308,0.0078.2587,0.012l0.04,0.0016q0.1226,0.0034.2428,0.0035l0.03-.0007,0.071,0,0.0014-.0014a7.3946,7.3946,0,0,0,1.122-.0953l0,0q0.1365-.0227.2688-0.0507L103.9,78.116c0.0211-.0046.0417-0.01,0.0627-0.0147q0.1287-.03.2535-0.0637c0.0261-.0072.0515-0.0153,0.0773-0.0228q0.1166-.034.23-0.0721,0.0454-.0154.09-0.0314,0.1138-.0407.224-0.0859c0.0221-.009.0447-0.0176,0.0666-0.0269q0.143-.0608.28-0.1286l0.0259-.0136q0.1219-.0616.239-0.1291c0.0233-.0134.0462-0.0273,0.0692-0.041q0.0983-.0587.1932-0.1214c0.0213-.0141.0428-0.0279,0.0638-0.0423,0.08-.0544.1578-0.11,0.2336-0.1692l0.0042-.0031c0.08-.0618.1572-0.1264,0.2329-0.1929l0.0445-.04q0.0888-.08.174-0.164l0.0538-.0539q0.0869-.0885.17-0.1815l0.02-.0214,0.0121-.0139,0.0012-.0015,0.0015-.0016,0.0391-.045c0.0268-.0313.0526-0.0636,0.0787-0.0956s0.0518-.0627.077-0.095l0.0122-.0163q0.05-.0647.0984-0.1312l0.0129-.0172c0.0187-.0259.0368-0.0524,0.0551-0.0786l0.0414-.0607c0.0313-.0461.0624-0.0924,0.0926-0.14l0.03-.0483,0.0106-.0171,0.0369-.0594c0.0344-.0568.0677-0.1146,0.1006-0.1729l0.0309-.0545,0.0114-.0219c0.03-.0547.0582-0.111,0.0868-0.167,0.02-.0395.0417-0.0777,0.0613-0.1179l0.009-.0194,0.0019-.004,0.0277-.0594q0.054-.1147.1047-0.2327l0.0017-.004,0.0163-.0362,0.0164-.0409q0.0525-.1263.1013-0.2564l0.0187-.0487,0.0005-.0016,0.0056-.0145q0.0555-.1517.106-0.3083l0.0114-.0367,0.0008-.0026,0.0143-.0464,0.0085-.0274q0.0325-.1052.0631-0.2122l0.0237-.0858,0.0011-.0045,0.0179-.065c0.0169-.0637.0329-0.1283,0.0488-0.193,0.0071-.0291.0145-0.058,0.0214-0.0874s0.0135-.0566.02-0.0852l0.012-.0556,0.0189-.0877,0,0c0.0147-.069.029-0.1383,0.0425-0.2084,0.0115-.06.0225-0.12,0.0332-0.18q0.02-.1153.0389-0.2324,0.0142-.09.0273-0.1813h0l0.0006-.0006,0.0056-.041q0.0079-.0567.0155-0.1137,0.01-.08.02-0.1607c0.0041-.0349.0079-0.07,0.0118-0.1052l0.003-.0269c0.003-.0278.0065-0.0552,0.0093-0.0831,0.0074-.0721.0138-0.1451,0.02-0.218,0.0027-.0305.0057-0.0607,0.0082-0.0914l0.0059-.0716c0.0022-.0282.0038-0.0568,0.0058-0.0851,0.0061-.0851.012-0.17,0.0168-0.2567l0.0023-.0487,0.0008-.0135c0.002-.038.0036-0.0763,0.0053-0.1146,0.0021-.0477.0047-0.0951,0.0064-0.1432,0.0013-.0355.0019-0.0715,0.003-0.1071h0l0,0c0.001-.031.0026-0.0614,0.0034-0.0925q0.0058-.2312.0061-0.4668V70.0765q0-.28-0.0083-0.5567c-0.0018-.0628-0.0053-0.1251-0.0077-0.1878-0.0047-.1236-0.01-0.2472-0.0166-0.37-0.0042-.0738-0.01-0.1471-0.015-0.2206-0.0076-.1111-0.0153-0.2222-0.0248-0.3328-0.0067-.0779-0.0145-0.1554-0.0221-0.233-0.01-.1055-0.0209-0.2109-0.0328-0.3158-0.009-.08-0.0189-0.159-0.0289-0.2383q-0.0194-.1537-0.0408-0.3067-0.017-.12-0.0354-0.2392-0.0233-.1514-0.049-0.302c-0.0135-.0794-0.0271-0.1587-0.0414-0.2378-0.0182-.1-0.0376-0.2-0.0572-0.3-0.0154-.0781-0.0306-0.1562-0.0469-0.234-0.0212-.1014-0.0438-0.2023-0.0665-0.3031-0.0169-.0751-0.0333-0.15-0.051-0.2253-0.025-.1055-0.0516-0.21-0.0781-0.3153-0.0176-.0695-0.0343-0.1392-0.0526-0.2084-0.0329-.1249-0.0679-0.249-0.103-0.373-0.0137-.0484-0.0264-0.0972-0.04-0.1454q-0.0734-.2525-0.1528-0.5026c-0.0224-.0707-0.0463-0.1407-0.0694-0.2111-0.0324-.099-0.0646-0.1981-0.0984-0.2965-0.027-.0787-0.0553-0.1568-0.0832-0.2351-0.0316-.089-0.0631-0.1781-0.0958-0.2667-0.03-.0819-0.0615-0.1633-0.0926-0.2448-0.0322-.0844-0.0645-0.1687-0.0977-0.2527s-0.0664-.1656-0.1-0.2482-0.0668-.163-0.1009-0.2441q-0.0529-.1256-0.1072-0.2506-0.0513-.1183-0.1039-0.236-0.0566-.1268-0.1144-0.253-0.0524-.1141-0.1062-0.2276c-0.04-.0854-0.0805-0.1708-0.1217-0.2557-0.0353-.0729-0.0714-0.1453-0.1074-0.2179-0.0431-.087-0.0861-0.174-0.13-0.26-0.0344-.0675-0.07-0.1346-0.1047-0.2018-0.0471-.0905-0.0939-0.1812-0.142-0.2712-0.0287-.0537-0.0583-0.1068-0.0873-0.16q-0.2921-.5382-0.6067-1.0636c-0.0252-.0422-0.05-0.0846-0.0754-0.1267-0.06-.1-0.1218-0.1986-0.1832-0.2976-0.0315-.0508-0.0627-0.1018-0.0945-0.1524-0.06-.0958-0.1213-0.191-0.1825-0.2861-0.0341-.0529-0.0679-0.1059-0.1023-0.1586q-0.092-.1412-0.1856-0.2812-0.0523-.0785-0.105-0.1569-0.095-.1409-0.1914-0.2806-0.0521-.0756-0.1046-0.1509c-0.0354-.0508-0.07-0.1021-0.1058-0.1527-0.0307-.0435-0.0621-0.0864-0.0929-0.13q-0.05-.0706-0.1009-0.1408-0.104-.1447-0.2091-0.2884c-0.03-.0414-0.0611-0.0826-0.0917-0.124q-0.1115-.1507-0.2242-0.3l-0.07-.092c-0.0674-.0886-0.1344-0.1776-0.2026-0.2656l-0.0489-.0623q-0.24-.309-0.4861-0.6124-0.2006-.2481-0.4043-0.4928c-0.0347-.0416-0.069-0.0837-0.1038-0.1252a5.6424,5.6424,0,0,0,2.8707-.748c0.0671-.0412.1328-0.0851,0.1979-0.13l0.014-.01a4.32,4.32,0,0,0,.8234-0.7519,4.9907,4.9907,0,0,0,.5156-0.7379c0.011-.0191.0211-0.04,0.0319-0.0592q0.0457-.0816.09-0.1664c0.01-.0194.0208-0.0374,0.0307-0.057L106.34,51.17c0.0372-.0747.0731-0.1518,0.1084-0.23l0.0028-.0064c0.0125-.0279.0249-0.0558,0.0371-0.0842l0.0006-.0015c0.0351-.0814.0692-0.1645,0.1021-0.25l0.014-.0352,0.017-.0482c0.0234-.063.0458-0.1278,0.068-0.1929,0.0107-.0315.0224-0.0613,0.0329-0.0933,0.0321-.0983.0624-0.2,0.0915-0.3037l0.003-.01c0.0084-.03.0168-0.0591,0.0249-0.0891,0.0182-.0669.0351-0.1364,0.0522-0.2053h0c0.0091-.0368.0191-0.0722,0.0279-0.11l0.0179-.079c0.0238-.1048.0465-0.2116,0.0678-0.321l0.0087-.0433c0.0184-.0966.0346-0.197,0.051-0.2972h0c0.0039-.0239.0084-0.0468,0.0122-0.071l0.0134-.0862c0.0089-.0592.0163-0.121,0.0245-0.1814l0.0089-.0657c0.0059-.0453.0127-0.0891,0.0182-0.1351l0.0091-.08c0.004-.0351.007-0.0719,0.0109-0.1074s0.0072-.0706.0107-0.1059c0.0065-.0645.0139-0.1275,0.02-0.1935l0.0019-.02c0.0029-.0336.0046-0.0692,0.0072-0.1032,0.0032-.0407.0057-0.0827,0.0086-0.1239,0.0049-.0715.0107-0.1415,0.0149-0.2142l0.005-.087,0.0011-.0277h0c0.0071-.1383.013-0.2787,0.017-0.4224l0.0021-.087c0.0038-.1609.0064-0.324,0.0064-0.4915,0-.0935-0.0015-0.1874-0.0033-0.2813v0l-0.001-.0683q-0.004-.1659-0.0117-0.3326-0.0161-.343-0.048-0.6892-0.0148-.16-0.0333-0.3216c-0.0051-.0448-0.0109-0.09-0.0164-0.1347h0q-0.0618-.5085-0.1568-1.0221h0q-0.1084-.5857-0.26-1.1765c-0.0431-.1685-0.0879-0.3372-0.1361-0.5062-0.05-.1757-0.1041-0.3517-0.16-0.5278-0.0193-.061-0.038-0.1221-0.058-0.1831-0.0337-.1031-0.07-0.2062-0.1054-0.3093l-0.0194-.0569c-0.06-.1722-0.1222-0.3444-0.1874-0.5167h0q-0.179-.4734-0.3833-0.9467h0c-0.0444-.1026-0.0892-0.2051-0.1354-0.3076-0.0219-.0487-0.0449-0.0973-0.0672-0.1459l-0.0345-.075c-0.07-.1516-0.1419-0.3032-0.2161-0.4546l-0.0172-.0358q-0.1019-.2072-0.2092-0.414l-0.0133-.0255c-0.0466-.09-0.0932-0.18-0.1411-0.27-0.0235-.0441-0.048-0.088-0.0718-0.1321-0.04-.0739-0.08-0.1478-0.1205-0.2216q-0.0979-.1766-0.1994-0.3529-0.0985-.171-0.2-0.3416-0.1079-.1809-0.2194-0.3613-0.1084-.1752-0.22-0.35c-0.0232-.0362-0.0472-0.0723-0.0706-0.1085-0.0518-.08-0.1034-0.16-0.1564-0.24q-0.1152-.174-0.2338-0.3474-0.2372-.3467-0.4879-0.69t-0.5146-.6841q-0.1319-.17-0.2672-0.3394c-0.0356-.0445-0.0721-0.0887-0.108-0.1331l-0.0431-.0532c-0.0409-.05-0.0813-0.1009-0.1226-0.1512q-0.8311-1.0094-1.7781-1.979-0.6308-.6452-1.3114-1.2682Q98.38,29.3,98.0276,28.995q-0.1762-.1525-0.3553-0.3034t-0.3613-.3q-0.7286-.5967-1.5044-1.1649-0.3878-.2838-0.7871-0.56-1.1978-.8278-2.4969-1.5791-0.2011-.1161-0.4-0.2272c-0.0391-.022-0.0781-0.0435-0.1171-0.0652q-0.1445-.08-0.2878-0.1584l-0.122-.0663q-0.614-.3311-1.2038-0.6176l0,0-0.0714-.0343q-0.148-.0715-0.2945-0.14L89.9452,23.74q-0.1864-.0867-0.37-0.1689l-0.0686-.03q-0.3462-.1535-0.6832-0.291h0L88.74,23.216q-0.18-.0726-0.3569-0.1409l-0.0184-.0069q-0.1655-.0635-0.3286-0.1227l-0.0934-.0337q-0.1317-.0473-0.2618-0.092l-0.09-.0308Q87.25,22.6736,86.92,22.5759l-0.08-.0232q-0.3126-.0909-0.6157-0.1662l-0.0457-.0116q-0.16-.0392-0.317-0.0739l-0.0641-.0137q-0.1239-.0268-0.2462-0.051l-0.0874-.0169q-0.1195-.0227-0.2373-0.0429l-0.0226-.0041h0c-0.115-.0195-0.2292-0.0375-0.3418-0.0532l-0.0431-.0056q-0.1241-.0169-0.2462-0.0307l-0.0848-.0092q-0.1057-.0112-0.21-0.02l-0.079-.0067c-0.0931-.0072-0.1855-0.0135-0.2768-0.018l-0.0084,0c-0.0877-.0043-0.1744-0.007-0.26-0.0087l-0.0813-.001c-0.0334,0-.0671-0.0013-0.1-0.0013l-0.0494.001H83.4133q-0.0755.0005-.15,0.0023l-0.0735.0025-0.023,0-0.078.0029c-0.0315.0015-.0628,0.0032-0.0941,0.0051-0.0377.0022-.0749,0.005-0.1122,0.0078-0.0339.0025-.0684,0.0042-0.102,0.0071l-0.0067,0-0.0416.0043c-0.0337.0031-.0669,0.0071-0.1,0.0107-0.0313.0033-.0629,0.0063-0.0939,0.01l-0.0006.0006-0.0006.0006c-0.0245.0029-.05,0.005-0.0739,0.0081-0.0308.004-.061,0.0091-0.0915,0.0135q-0.0993.0144-.1969,0.0313l-0.0063.001h0l-0.0039.0007c-0.0327.0058-.0651,0.0119-0.0974,0.0181l-0.0244.0045-0.0391.0073c-0.0471.01-.0932,0.02-0.14,0.0308-0.0255.0058-.0513,0.011-0.0766,0.0171l-0.0111.0029-0.0094.0021c-0.0491.012-.0974,0.025-0.1457,0.0381-0.0282.0076-.0565,0.0151-0.0844,0.0231h0l-0.0382.01c-0.0344.01-.0679,0.0214-0.1019,0.0321-0.0278.0087-.0555,0.0175-0.083,0.0266-0.0292.01-.0587,0.0191-0.0876,0.0292l-0.0527.0195-0.005.0019-0.0707.0262c-0.018.0068-.0363,0.0131-0.0542,0.02l0.0009,0.0009,0,0c-0.022.0086-.0445,0.0167-0.0663,0.0255-0.0331.0135-.066,0.0274-0.0986,0.0415q-0.09.0386-.1768,0.08c-0.0236.0112-.0472,0.0224-0.07,0.034-0.0276.0137-.0552,0.0274-0.0825,0.0415l-0.0312.0169q-0.0395.0208-.0784,0.0423l-0.0476.0257q-0.1193.0675-.2339,0.1408l-0.0288.0194q-0.0973.0635-.191,0.1313c-0.0209.0151-.0414,0.0308-0.062,0.0462q-0.0773.0579-.1522,0.1187c-0.0212.0173-.0424,0.0346-0.0633,0.0523q-0.0774.0653-.1519,0.134c-0.016.0146-.0323,0.0289-0.048,0.0437l-0.0351.0331c-0.0417.04-.0819,0.0822-0.1223,0.124-0.0127.0131-.0258,0.0256-0.0384,0.0389q-0.09.0953-.1754,0.1956c-0.0158.0187-.0312,0.038-0.0468,0.0569q-0.0633.0768-.1241,0.1566-0.026.0341-.0514,0.0687-0.0591.0805-.1156,0.1642c-0.0144.0213-.0291,0.0423-0.0434,0.0639q-0.0731.1113-.1419,0.2273l-0.0053.0086q-0.0721.1229-.1389,0.2516c-0.0111.0212-.0216,0.0432-0.0325,0.0646l-0.0029.0058q-0.0472.0934-.0921,0.1895c-0.0131.0284-.026,0.057-0.0388,0.0858l-0.0048.0105,0,0a7.1537,7.1537,0,0,0-.3488.9811l0,0c-0.0156.0561-.031,0.1125-0.0456,0.17-0.0087.0341-.017,0.0686-0.0253,0.1031q-0.026.1072-.05,0.2167c-0.0078.0362-.0156,0.0724-0.023,0.1089-0.0078.0385-.0155,0.0771-0.0229,0.116-0.0078.0413-.015,0.0832-0.0223,0.1249-0.0052.0294-.0107,0.0583-0.0156,0.0879q-0.0276.1665-.05,0.3378l-0.0066.0557q-0.0181.1443-.0328,0.2921c-0.0038.0388-.007,0.0781-0.01,0.1172q-0.0107.1213-.0191,0.2447-0.0043.0641-.008,0.1287-0.0062.1105-.01,0.223l0,0c-0.002.05-.0045,0.1-0.0059,0.1508-0.0034.1251-.0056,0.2513-0.0056,0.38h0a20.2347,20.2347,0,0,0,.4118,4.0752c0.03,0.1452.06,0.29,0.0929,0.4336h0q0.1229,0.5389.2726,1.0624,0.2224,0.7784.5,1.5228,0.1,0.2684.2062,0.5322,0.09,0.2242.1844,0.4456,0.2061,0.4814.4326,0.9481,0.1231,0.254.2523,0.5033h0q0.1078,0.209.2189,0.4152,0.1407,0.26.2876,0.5146,0.1874,0.3266.3838,0.6449h0c0.0382,0.0622.076,0.1248,0.1147,0.1865q0.2768,0.4415.5688,0.8676,0.1263,0.1847.2549,0.3669,0.147,0.2074.297,0.4111,0.1454,0.1974.2934,0.3914,0.15,0.197.3034,0.3905L82.65,42.76q0.2935,0.37.5952,0.7277,0.3147,0.3728.6368,0.7315-0.1648-.0087-0.329-0.0131L83.53,44.2058q-0.1571-.0042-0.3134-0.0043l-0.0237,0-0.0124,0q-0.1512,0-.3015.0043l-0.0436.0012q-0.1478.0045-.2944,0.013-0.1924.011-.3825,0.0291-0.1456.0139-.29,0.032l-0.04.0052q-0.1468.0192-.2919,0.043l-0.0292.0051c-0.1.0169-.1994,0.0352-0.2979,0.0557l-0.0126.0027c-0.078.0163-.1553,0.034-0.2323,0.0526l-0.0684.0165-0.0073.0018q-0.1467.0371-.29,0.08l-0.0246.0072q-0.1385.0419-.2742,0.09l-0.0332.0115q-0.1327.0472-.2624,0.1l-0.0372.0152q-0.1282.0532-.2534,0.1121l-0.037.0176q-0.1251.06-.247,0.1256l-0.0335.0184q-0.1232.0676-.243,0.1414l-0.0263.0166-0.0294.0186c-0.0717.0455-.1425,0.0924-0.2121,0.1415l-0.015.0109a5.1536,5.1536,0,0,0-.4764.3826l-0.0126.0112q-0.11.1-.2143,0.2078l-0.0217.022q-0.0825.0856-.162,0.1761l-0.036.0418-0.0259.03q-0.0947.1118-.1847,0.231l-0.0263.035q-0.0891.12-.1733,0.2468l-0.0244.0373q-0.0841.1291-.1632,0.2658l-0.02.0356c-0.0532.0938-.1049,0.19-0.1544,0.2892l-0.0136.028c-0.0509.1033-.1,0.2091-0.147,0.3185l-0.005.0121q-0.0713.1675-.1361,0.3445l-0.0043.0112c-0.0421.1159-.0817,0.2355-0.12,0.3577l-0.0106.0337q-0.0382.1258-.0734,0.2559l0.0031-.0031q-0.1135.42-.193,0.8887l-0.0017-.0017c-0.0057.0336-.0108,0.068-0.0162,0.1021l-0.01.0642q-0.0309.2026-.0553,0.4141l-0.0071.0642c-0.0033.0305-.0069,0.0607-0.01,0.0915q-0.0175.1716-.0306,0.3491l-0.0038.0569c-0.0108.1551-.02,0.313-0.0254,0.4749l-0.001.0384c-0.0057.17-.009,0.3431-0.009,0.5207h0L76.3066,51.87q0.0006,0.18.0047,0.3616,0.01,0.4571.0423,0.9212l0.0025,0.0388q0.0126,0.1754.0285,0.3516,0.0408,0.4524.1043,0.9106,0.0586,0.4267.136,0.8576c0.0171,0.094.0354,0.1882,0.0538,0.2825,0.03,0.1517.0607,0.3036,0.0942,0.456q0.0784,0.3565.1708,0.7153,0.0529,0.2056.1106,0.4119,0.0867,0.3107.1845,0.6229c0.0466,0.1491.0943,0.2984,0.1446,0.4479q0.1242,0.3692.2638,0.74c0.0229,0.061.0472,0.122,0.0708,0.183,0.0721,0.1862.1461,0.3726,0.2242,0.5593q0.0777,0.1858.1594,0.3719,0.078,0.1775.16,0.3552t0.1672,0.3555q0.0977,0.2035.2,0.4072,0.094,0.1865.1921,0.3731c0.018,0.0342.0369,0.0684,0.0551,0.1025,0.1142,0.2146.2318,0.4293,0.3545,0.6439,0.0527,0.0922.107,0.1844,0.1612,0.2766q0.2426,0.4123.5058,0.8241h0c0.0653,0.1018.1322,0.2036,0.1994,0.3054,0.1008,0.1527.203,0.3053,0.3084,0.4577,0.0224,0.0324.0457,0.0647,0.0683,0.0971q0.2694,0.3863.5585,0.7715h0c0.1541,0.2054.3114,0.4106,0.474,0.6153,0.0508,0.064.1033,0.1279,0.155,0.1919h0l0.0028,0.0034h0c0.1464,0.1811.295,0.3621,0.4482,0.5426,0.0507,0.06.1028,0.1192,0.1543,0.1788,0.16,0.1855.3222,0.3708,0.4894,0.5555,0.0616,0.068.1249,0.1359,0.1874,0.2039q0.3153,0.3422.6476,0.6824,0.1394,0.1427.2812,0.2851t0.2873,0.2843c0.05,0.0488.1016,0.0974,0.1522,0.1462q0.3353,0.323.6862,0.6438,0.3715,0.339.7609,0.6754,0.32,0.2758.6528,0.5495h0l0.07,0.0578q0.3906,0.32.7988,0.6374,0.3708,0.2884.7559,0.574,0.2574,0.1908.5215,0.38c0.1034,0.0744.2067,0.1488,0.3117,0.2228h0c0.2577,0.1816.5212,0.3621,0.7881,0.5418q0.4254,0.2865.8666,0.57h0q0.27,0.1733.5464,0.3453c0.0537,0.0334.1077,0.0667,0.1615,0.1,0.0364,0.0225.0725,0.0452,0.1091,0.0676q0.4412,0.2708.8983,0.538c0.0946,0.0554.1882,0.111,0.2837,0.1662l0.001,0.0006c0.1633,0.0943.3243,0.1855,0.4843,0.2753l0.0759,0.0429,0.0588,0.0324q0.1923,0.1071.3818,0.21l0.1038,0.0566q0.2334,0.1261.4626,0.2461l0.1037,0.0538q0.4779,0.2485.9383,0.4717Zm-1.0381-3.4319,0.665-.665,0.6649,0.6649-0.665.665Zm-1.3831-1.3831,0.665-.665,0.665,0.665-0.665.665Zm-1.3831-1.3831,0.665-.665,0.665,0.665-0.665.665Zm-2.1012.6649-0.665-.665,0.6649-.6649,0.665,0.665Zm-6.1973-6.1973,0.6649-.6649,0.6649,0.6649-0.6649.6649Zm-1.3831-1.3831,0.6649-.6649,0.665,0.665-0.6649.6649Zm0-2.7662,0.6649-.6649,0.665,0.665-0.6649.665Zm-1.3831-1.3831,0.6649-.6649,0.665,0.665-0.6649.6649Zm-1.3831-4.1493,0.665-.665,0.665,0.665-0.665.665Zm0-2.7662,0.6649-.6649,0.6649,0.6649-0.6649.6649Zm0-2.7662,0.6649-.6649,0.6649,0.6649-0.6649.6649Zm5.5324-8.2986,0.6649-.6649,0.6649,0.6649-0.6649.6649ZM83.0437,39.6l0.6649-.6649L84.3735,39.6l-0.6649.6649ZM81.6606,38.217l0.6649-.6649L82.99,38.217l-0.6649.6649Zm0-2.7662,0.6649-.6649L82.99,35.4508l-0.6649.6649Zm-1.58.1439q-0.0815-.2218-0.157-0.4448l0.3009,0.3009Zm0.1971-1.527,0.6649-.6649,0.6649,0.6649-0.6649.6649Zm0-2.7662,0.6649-.6649,0.6649,0.6649-0.6649.6649Zm0-2.7662,0.6649-.6649,0.6649,0.6649L80.9424,29.2Zm0-2.7662,0.6649-.6649,0.6649,0.6649-0.6649.6649Zm4.8142-2.048,0.6649,0.6649-0.6649.6649-0.6649-.6649Zm2.048,2.048-0.6649.6649L85.81,25.7692l0.6649-.6649Zm2.1013-.6649,0.6649,0.6649-0.6649.6649-0.6649-.6649Zm3.4311,3.4311L92.0071,29.2l-0.6649-.6649,0.6649-.6649Zm1.3831,1.3831-0.6649.6649-0.6649-.6649,0.6649-.6649Zm2.1013-.6649,0.6649,0.6649-0.6649.6649-0.6649-.6649Zm4.8142,7.58-0.6649.6649-0.6649-.6649,0.6649-.6649Zm1.3831,1.3831-0.6649.6649-0.6649-.6649,0.6649-.6649Zm2.7662,8.2986-0.6649.6649-0.6649-.665,0.6649-.6649Zm0.7518,0.7518q-0.0394.641-.1265,1.2034l-0.5721-.5721,0.6649-.6649Zm-2.8,4.0625-0.6649-.6649,0.665-.665,0.6649,0.6649Zm0.665,10.4-0.665.665-0.6649-.665,0.665-.665Zm1.3831,1.3831-0.665.665-0.6649-.6649,0.665-.665Zm0,2.7662-0.6649.6649-0.665-.665,0.6649-.6649Zm1.3831,1.3831-0.6649.6649-0.6649-.665,0.6649-.6649Zm0,2.7662-0.665.665-0.665-.665,0.665-.665Zm0,2.7662-0.665.665-0.6649-.6649,0.665-.665Zm-2.048,2.0481-0.6649-.6649,0.6649-.6649,0.6649,0.6649Zm-1.3831,1.3831-0.6649-.6649,0.665-.665,0.6649,0.6649Zm-2.7662,0-0.665-.665,0.665-.665,0.665,0.665Zm-2.0481-2.0481,0.665-.665,0.665,0.665-0.665.665Zm-1.3831-1.3831,0.665-.665,0.665,0.665-0.665.665Zm-1.3831-1.3831,0.665-.665,0.6649,0.6649-0.665.665Zm-1.3831-1.3831,0.665-.665,0.665,0.665-0.665.665Zm-1.3831-1.3831L92.83,68.54q0.4638,0.2333.9077,0.4223L93.39,69.31Zm-3.4843-.7181-0.6649-.6649,0.6649-.665,0.6649,0.6649ZM85.81,64.4959l0.665-.665,0.665,0.665-0.6649.665Zm-1.3831-1.3831,0.665-.665,0.6649,0.6649-0.6649.665ZM83.0436,61.73l0.6649-.665,0.665,0.665-0.6649.665Zm0-2.7662,0.665-.665,0.0409,0.0409q0.13,0.4733.3016,0.9466l-0.3424.3425ZM81.6605,57.58l0.665-.665L82.99,57.58l-0.665.665Zm-1.3831-1.3831,0.6649-.665,0.6649,0.6649-0.665.665Zm0-2.7662,0.6649-.6649,0.665,0.665-0.6649.6649Zm0-2.7662L80.9424,50l0.6649,0.6649-0.6649.6649ZM82.99,49.2818l-0.6649.6649-0.6649-.6649,0.6649-.6649Zm2.1013-.665,0.665,0.665-0.665.665-0.665-.665Zm1.2927-2.91,0.1718,0.009-0.0814.0814ZM85.81,42.3663l0.6649-.6649L87.14,42.3663l-0.6649.6649ZM84.4267,38.217l0.5286-.5286q0.1329,0.5121.315,1.0149l-0.1787.1787ZM83.0437,36.834l0.6649-.6649,0.6649,0.6649-0.6649.6649Zm0-2.7662,0.6649-.6649,0.6649,0.6649-0.6649.6649Zm-1.3831-1.3831,0.6649-.6649L82.99,32.6846l-0.6649.6649Zm0-2.7662,0.6649-.6649L82.99,29.9185l-0.6649.6649Zm0-2.7662,0.6649-.6649L82.99,27.1523l-0.6649.6649Zm3.4311-.6649,0.6649,0.6649-0.6649.6649-0.6649-.6649Zm2.048,2.048L86.4748,29.2,85.81,28.5354l0.6649-.6649Zm2.1013-.6649,0.6649,0.6649L89.241,29.2l-0.6649-.6649Zm2.048,2.048-0.6649.6649-0.6649-.6649,0.6649-.6649Zm1.3831,1.3831-0.1185.1185q-0.4614-.2378-0.9053-0.4245l0.3589-.3589ZM96.1564,32.02l0.6649,0.6649-0.6649.6649-0.6649-.6649Zm2.0481,2.048-0.6649.6649-0.6649-.6649,0.6649-.6649Zm1.3831,1.3831-0.6649.6649-0.6649-.6649,0.6649-.6649Zm0,2.7662-0.2988.2989c-0.1291-.3042-0.27-0.6062-0.4256-0.9043l0.06-.06ZM100.9706,39.6l-0.6649.6649-0.598-.598c-0.01-.0342-0.02-0.0684-0.0312-0.1026l0.6293-.6293Zm1.3831,1.3831-0.6649.6649-0.6649-.6649,0.6649-.6649Zm1.3831,1.3831-0.6649.6649-0.6649-.665,0.6649-.6649Zm0,2.7662-0.6649.6649-0.6649-.6649,0.6649-.6649Zm0,2.7662-0.6649.6649-0.6649-.665,0.6649-.6649ZM99.5875,52.048l-0.5109.5109-0.1743.0039L98.98,52.6554l-0.0576.0576-0.665-.665,0.665-.665Zm1.3831,6.9155-0.3163.3163q-0.187-.4627-0.41-0.92l0.0611-.0611Zm1.3831,1.3831-0.665.665-0.6478-.6478-0.0082-.0262,0.6559-.656Zm0,2.7662-0.6649.6649-0.0691-.0691q-0.0213-.5531-0.09-1.1014l0.1594-.1594Zm1.3831,1.3831-0.6649.6649-0.6649-.6649,0.6649-.6649Zm0,2.7662-0.665.665-0.665-.665,0.665-.665Zm1.3831,1.3831-0.665.665-0.665-.665,0.665-.665Zm0,2.7662-0.665.665-0.665-.665,0.665-.665Zm-2.048,2.0481-0.665-.665,0.6649-.6649,0.665,0.665Zm-3.4312-.665,0.665-.665,0.665,0.665-0.665.665Zm-1.3831-1.3831,0.665-.665,0.665,0.665-0.665.665Zm-1.3831-1.3831,0.2745-.2745a5.1384,5.1384,0,0,0,.7227-0.0584l0.3328,0.3328-0.665.665Zm-3.33-2.6431-0.03-.0155q-0.133-.0662-0.2689-0.1369l-0.0832-.0439q-0.1159-.0611-0.234-0.1256l-0.0369-.02-0.052-.0285c-0.1044-.0578-0.21-0.1168-0.3166-0.1786a19.7642,19.7642,0,0,1-2.3691-1.6q-0.2134-.1685-0.4177-0.34Q89.327,64.5531,88.9547,64.2q-0.1862-.1764-0.3635-0.3549-0.3546-.357-0.6743-0.7213a14.7213,14.7213,0,0,1-1.3868-1.848c-0.0349-.0551-0.0671-0.11-0.1009-0.1655q-0.07-.115-0.138-0.23-0.2027-.3452-0.378-0.69c-0.1551-.3056-0.2932-0.61-0.4171-0.9128-0.0319-.0779-0.0645-0.1559-0.0944-0.2336a11.1513,11.1513,0,0,1-.3574-1.0912c-0.0738-.2729-0.1335-0.5419-0.1825-0.8072h0c-0.0154-.0835-0.031-0.1672-0.044-0.25q-0.0543-.3452-0.0809-0.6793T84.71,55.562h0c0-.1042.0019-0.2057,0.005-0.3056,0.0009-.0314.0025-0.062,0.0037-0.0929,0.0011-.0281.0028-0.0553,0.0042-0.0831,0.0044-.09.01-0.1788,0.0168-0.2653,0.0027-.0336.0057-0.0669,0.0087-0.1q0.0125-.1355.0291-0.265l0.0089-.0706c0.0028-.02.0049-0.0418,0.0079-0.062l0.0047-.0287q0.0172-.1138.0376-0.2228c0.005-.027.0106-0.0533,0.0159-0.08q0.0167-.0832.0351-0.1637c0.0063-.0274.0127-0.0547,0.0193-0.0816,0.0135-.0549.0278-0.1086,0.0426-0.1615,0.0061-.0216.0118-0.0438,0.0181-0.0651,0.0212-.0722.0435-0.1428,0.0671-0.2114l0.0141-.0383q0.03-.0835.0614-0.1636c0.009-.0225.0184-0.0445,0.0277-0.0665q0.0273-.0651.0561-0.1278c0.01-.0221.02-0.0441,0.0309-0.0658,0.0212-.0439.0431-0.0867,0.0655-0.1288l0.026-.0493q0.0467-.0847.0964-0.1646l0.0252-.0385c0.0259-.04.0522-0.08,0.0793-0.1183,0.0127-.0181.0258-0.0357,0.0387-0.0533q0.0362-.0493.0738-0.0964c0.0135-.017.0271-0.0341,0.0408-0.0507,0.0284-.0342.0574-0.0673,0.0868-0.1l0.0311-.0349q0.0594-.0637.1215-0.1229L85.946,51.85c0.0307-.0284.0618-0.0563,0.0934-0.0833l0.0482-.04q0.0441-.036.0893-0.07l0.0483-.0361c0.0356-.0258.0718-0.0505,0.1083-0.0746l0.0319-.0215q0.07-.0451.1427-0.0862l0.0448-.0244c0.0349-.0191.07-0.0378,0.1055-0.0556l0.0552-.027q0.0512-.0245.1033-0.0472l0.0535-.0233q0.065-.0272.1313-0.0518l0.0268-.01c0.0529-.0192.1064-0.0371,0.16-0.0541L87.24,51.13c0.0385-.0115.0773-0.0227,0.1163-0.0331l0.06-.0154q0.0579-.0146.1165-0.0275l0.0551-.0122q0.08-.0166.16-0.0307l0.0116-.0022c0.0577-.01.116-0.0184,0.1746-0.0263l0.055-.0068q0.0623-.0077.1251-0.0141l0.0619-.0059q0.0635-.0057.1276-0.01l0.0547-.0037c0.06-.0035.1209-0.0064,0.1818-0.0082l0.0089,0q0.0872-.0024.1751-0.0025c0.0166,0,.0332,0,0.05,0a8.6182,8.6182,0,0,1,.9224.0563l0.0423,0.005q0.0918,0.0107.1837,0.023l0.0487,0.0065q0.1076,0.0149.2151,0.0317l0.0371,0.006q0.0931,0.0149.1859,0.0312L90.46,51.1q0.107,0.0192.2135,0.04l0.0327,0.0065q0.0941,0.0186.1876,0.0382l0.05,0.01q0.1062,0.0227.2117,0.0465l0.0244,0.0056q0.0952,0.0217.1895,0.0443l0.051,0.0122q0.1036,0.0251.206,0.0509l0.0183,0.0047q0.0948,0.024.1882,0.0487l0.0517,0.0136q0.1,0.0264.1983,0.0533l0.0142,0.0039q0.0937,0.0257.1857,0.0516l0.0493,0.0139c0.0637,0.018.127,0.036,0.1894,0.054l0.0017,0q0.1829,0.1413.3658,0.2861,0.3678,0.2911.7337,0.5962,0.17,0.1414.3381,0.2858A26.24,26.24,0,0,1,96.35,55.0762a19.06,19.06,0,0,1,1.4921,1.8651,15.3437,15.3437,0,0,1,.9952,1.6269q0.2224,0.422.4154,0.86t0.3529,0.891q0.16,0.4534.2846,0.9228t0.21,0.9551a11.5307,11.5307,0,0,1,.1754,2.0088,8.1264,8.1264,0,0,1-.0459.88l0,0-0.003.0271q-0.0075.0666-.0163,0.1324l-0.0019.014-0.0064.0475q-0.0108.0758-.0232,0.15l-0.0051.0322c-0.01.0583-.021,0.1159-0.0325,0.173l-0.0122.0578q-0.0127.0595-.0264,0.118l-0.0148.0618q-0.0159.064-.0333,0.1266l-0.0113.0418q-0.0226.0794-.0477,0.1566l-0.0186.0555q-0.0177.0527-.0364,0.1044l-0.0222.06c-0.0137.036-.028,0.0715-0.0425,0.1067l-0.0188.046q-0.03.071-.0631,0.14l-0.0252.051q-0.0229.0462-.0468,0.0914l-0.03.0552c-0.0169.0306-.0344,0.0606-0.0521,0.09l-0.0266.0448q-0.0385.0624-.0793,0.1222l-0.0312.0439q-0.0288.0406-.0586,0.08l-0.0369.0476c-0.0207.0261-.0419,0.0517-0.0634,0.077l-0.0334.0393q-0.0472.0534-.0968,0.1041l-0.0353.0346c-0.0239.0235-.0481,0.0467-0.0729,0.0693l-0.0431.0384q-0.0376.0328-.0765,0.0641l-0.0391.0316q-0.0567.0439-.1158,0.0849l-0.0363.0239c-0.03.02-.06,0.0393-0.091,0.058l-0.0479.0283q-0.0453.0261-.092,0.0505l-0.0434.0228c-0.0445.0223-.09,0.0436-0.1362,0.0637l-0.0345.014q-0.0555.0231-.1128,0.0441l-0.0516.0181q-0.0538.0185-.1091,0.035l-0.0473.0142c-0.0517.0145-.1042,0.0281-0.1579,0.04l-0.0288.0058q-0.0683.0146-.1387,0.0266l-0.0549.0086q-0.0625.01-.1267,0.0168l-0.0518.0059c-0.059.0059-.1189,0.0108-0.18,0.014l-0.02.0007c-0.0481.0023-.0972,0.0032-0.1466,0.0037l-0.0211.0005c-0.0121,0-.0244,0-0.0365,0H97.0441Q96.97,68.4,96.8946,68.3969l-0.0151-.0006-0.0327-.0014-0.0074,0c-0.0673-.0036-0.1354-0.0084-0.2049-0.015l-0.0283-.0031a6.0457,6.0457,0,0,1-.7259-0.12h0l-0.0064-.0015L95.86,68.2514q-0.097-.0222-0.1964-0.0479l-0.0691-.0182q-0.0981-.0263-0.1986-0.056l-0.0081-.0024-0.0205-.006-0.0206-.006q-0.1245-.0376-0.2526-0.08l-0.0019-.0007-0.0476-.0164L95.04,68.0159q-0.1032-.0352-0.2087-0.0737l-0.0021-.0008-0.0511-.0189,0,0h0l-0.0139-.0054h0l0,0-0.0062-.0023-0.0017-.0006q-0.1127-.0422-0.228-0.0882l-0.0031-.0012-0.0382-.015-0.0008,0q-0.1361-.055-0.276-0.1157l-0.022-.01-0.0461-.02-0.0007,0q-0.109-.0479-0.22-0.0991h0l-0.0779-.0361-0.0048-.0022h0c-0.07-.0329-0.1416-0.0674-0.2132-0.1023l-0.0506-.0243Zm-9.0763-7.08c0.0234,0.0511.0464,0.1023,0.0705,0.1533l-0.1119-.1119Zm-2.8076-5.491,0.6649-.6649L82.99,54.8142l-0.6649.6649Zm0-2.7662,0.6649-.6649,0.665,0.665-0.6649.6649Zm1.7023,3.83c0.0078,0.2272.0247,0.4565,0.049,0.6875l-0.3683-.3683Zm0.1334-1.9943-0.4526-.4526,0.6649-.6649,0.06,0.06A6.8183,6.8183,0,0,0,83.4963,53.8837Zm3.6966-7.3681,0.665-.665,0.665,0.665-0.665.665Zm0-2.7662,0.6649-.6649,0.6649,0.6649-0.6649.6649Zm-1.15-7.53c-0.0189-.1387-0.0342-0.2795-0.0471-0.4214-0.0032-.0355-0.0061-0.0712-0.009-0.1069-0.0117-.1465-0.0215-0.2941-0.0268-0.4439-0.0042-.1172-0.0071-0.2351-0.0071-0.3544,0-.0936.0028-0.1846,0.0068-0.2743l0.0026-.0563c0.0048-.0868.0112-0.172,0.02-0.2552l0.0046-.04,0.0027-.02,0,0c0.0171-.1484.04-0.2915,0.0688-0.4277l0.0021-.0021,0.0083-.042,0.011-.0467c0.0182-.0759.0376-0.15,0.06-0.2224v0c0.022-.072.0466-0.1412,0.0723-0.2091l0.0151-.04q0.039-.0987.0831-0.1916l0.0141-.0281q0.0424-.0863.0895-0.1674l0.0128-.0225c0.0341-.0573.07-0.1122,0.1077-0.1655l0.0225-.0312c0.0389-.0534.0791-0.1052,0.1215-0.1543l0.0015-.0016c0.0421-.0486.0865-0.0945,0.132-0.1389l0.0256-.0249q0.0685-.0646.1417-0.1232l0.0236-.018q0.07-.0539.1433-0.1023l0.02-.0131c0.053-.0339.1077-0.0653,0.1638-0.0949l0.0346-.0178c0.0574-.0291.116-0.0567,0.1766-0.0815l0.0079-.003c0.0587-.0238.1193-0.045,0.181-0.0646l0.0378-.012q0.0943-.0285.1929-0.0508l0.036-.0075c0.0554-.0117.1121-0.0216,0.17-0.03l0.0188-.0034,0.0277-.0043c0.07-.01.1407-0.0165,0.2131-0.0217l0.048-.0031c0.0735-.0043.1481-0.007,0.2244-0.0069l0.0264,0.0006c0.07,0.0006.1406,0.0031,0.2126,0.0074a4.93,4.93,0,0,1,.5291.0611l0,0c0.02,0.0033.0389,0.0054,0.0589,0.009l0.0253,0.005c0.0792,0.0146.16,0.0314,0.2411,0.05,0.0279,0.0063.0561,0.0132,0.0842,0.02q0.1,0.024.2013,0.0518c0.0276,0.0075.055,0.0148,0.0828,0.0228,0.093,0.0266.1868,0.0549,0.2823,0.0863l0.0228,0.0079c0.0451,0.015.0913,0.0322,0.137,0.0482l0.0007-.0007c0.0236,0.0083.0468,0.0158,0.0706,0.0244l0.0021,0.0021c0.02,0.0071.0391,0.0134,0.059,0.0208,0.03,0.0113.0612,0.0231,0.092,0.0349q0.1087,0.0415.2194,0.0869c0.03,0.0124.0605,0.0246,0.0911,0.0375,0.1014,0.0428.2036,0.0872,0.3074,0.1349L91.4553,32.39c0.0285,0.0131.0578,0.028,0.0865,0.0415,0.072,0.0339.144,0.0679,0.217,0.1041,0.0319,0.0158.0642,0.0323,0.0963,0.0486q0.1186,0.06.239,0.1242c0.0323,0.0172.0644,0.0341,0.0969,0.0517q0.1458,0.0792.2942,0.1643l0.0373,0.0208c0.2677,0.1545.5281,0.3185,0.7824,0.4893q0.1466,0.0985.29,0.2T93.88,33.8414q0.1615,0.121.3186,0.2461,0.3142,0.25.6108,0.516,0.1482,0.1328.2918,0.2691,0.25,0.2371.4841,0.4849,0.3272,0.3436.6257,0.7042c0.0691,0.0836.1377,0.1675,0.2044,0.2523,0.1254,0.1595.245,0.3216,0.3615,0.4849,0.0185,0.0259.0374,0.0516,0.0556,0.0776,0.061,0.0869.12,0.1745,0.1787,0.2624,0.0925,0.1391.1829,0.2788,0.2688,0.42q0.097,0.16.1884,0.3207a9.5243,9.5243,0,0,1,1.3283,4.6318v0.0037c0,0.1225-.0018.2416-0.0046,0.3584-0.001.0387-.0027,0.0759-0.0039,0.1139-0.0026.0785-.0055,0.1563-0.0094,0.2322-0.0178.3456-.0492,0.6638-0.0928,0.9574h0l0,0.0026c-0.0046.031-.0088,0.0629-0.0137,0.0933-0.0145.09-.03,0.178-0.047,0.2633l-0.0018.01c-0.0149.0745-.0314,0.1457-0.0481,0.2166l-0.009.0407c-0.0064.0263-.0134,0.0513-0.02,0.077-0.0145.0562-.0292,0.1119-0.0449,0.1658-0.0085.0293-.0175,0.0576-0.0263,0.0862-0.015.0485-.03,0.0964-0.0464,0.1429q-0.0146.0426-.03,0.0841c-0.0166.0453-.0337,0.0895-0.0512,0.1329-0.01.0257-.0206,0.0516-0.0313,0.0766-0.0194.0455-.04,0.0893-0.06,0.1327-0.01.02-.019,0.0414-0.0288,0.0614q-0.0439.0885-.0907,0.1711l-0.0047.0088c-0.0332.0579-.0677,0.1132-0.1031,0.1667-0.0106.016-.0217,0.0309-0.0325,0.0464-0.0252.0365-.0507,0.0725-0.077,0.1069-0.0137.018-.0279,0.0352-0.0419,0.0526-0.0245.03-.0493,0.06-0.0745,0.0889q-0.0227.0257-.0458,0.05-0.0385.0413-.0783,0.08c-0.0155.0151-.0309,0.03-0.0466,0.045-0.0288.0267-.0582,0.052-0.0879,0.0769-0.0141.0118-.0278,0.0241-0.0421,0.0354q-0.0608.0485-.124,0.0923l-0.0113.0083c-0.0463.0316-.0936,0.0612-0.1417,0.0891-0.0143.0083-.029,0.0157-0.0434,0.0237-0.0342.0189-.0686,0.0374-0.1037,0.0546-0.0183.0089-.0369,0.0172-0.0554,0.0257-0.0322.0148-.0647,0.029-0.0976,0.0424l-0.06.0234q-0.0493.0186-.1,0.0351c-0.02.0066-.04,0.0134-0.0606,0.02-0.0359.0109-.0724,0.0208-0.109,0.03-0.0183.0048-.0364,0.01-0.0549,0.0143q-0.0727.0173-.1473,0.031l-0.0207.0042c-0.0569.01-.1146,0.0186-0.173,0.0259l-0.0531.0055-0.0291.0027c-0.0317.0032-.0632,0.0066-0.0953,0.009-0.0225.0017-.0452,0.0028-0.0678,0.0041-0.038.0022-.0762,0.004-0.1148,0.0051l-0.0723.0014c-0.033,0-.0663,0-0.1,0l-0.0555-.0013-0.0671-.0016-0.0069,0c-0.0294-.0011-0.0588-0.0022-0.0885-0.0039H95.4474c-0.0429-.0024-0.0855-0.0055-0.1282-0.0088l-0.0072,0c-0.0283-.0023-0.0564-0.0042-0.0849-0.0069H95.2264c-0.0492-.0046-0.0986-0.01-0.148-0.0162l-0.005-.0006c-0.0241-.0029-0.048-0.0052-0.0723-0.0084h0q-0.1137-.0148-0.2293-0.0334h0l-0.6986-.5731-1.55-1.2717c-0.2034-.1708-0.5037-0.3975-0.8655-0.6811-0.2533-.1985-0.5368-0.425-0.8383-0.68q-0.0646-.0546-0.13-0.1109c-0.1712-.1468-0.3476-0.3025-0.5269-0.467q-0.0749-.0688-0.1505-0.1395-0.1387-.13-0.2791-0.267t-0.2812-.2811c-0.1878-.1921-0.3758-0.3935-0.5619-0.6045q-0.07-.0791-0.1392-0.16-0.1387-.1617-0.2752-0.3306-0.1243-.1538-0.2459-0.3139c-0.186-.2442-0.3669-0.4986-0.54-0.7637q-0.0622-.0952-0.123-0.1922-0.22-.3516-0.42-0.7274c-0.1539-.29-0.2972-0.591-0.4272-0.9026q-0.16-.3834-0.2912-0.7888-0.0436-.1351-0.0837-0.2726h0c-0.0347-.119-0.0678-0.2391-0.0984-0.3609q-0.0882-.3518-0.1513-0.7192l-0.0094-.0525C86.0691,36.4056,86.0556,36.3129,86.0429,36.22Zm-1.4359-.949c0.0042,0.1272.0114,0.2539,0.02,0.38l-0.2-.2Zm-0.18-2.586,0.6649-.6649,0.1577,0.1576a4.3143,4.3143,0,0,0-.4037.9261Zm-1.3831-1.3831,0.6649-.6649,0.6649,0.6649-0.6649.6649Zm2.048-2.048,0.6649,0.6649-0.6649.6649-0.6649-.6649Zm0.7181,2.048,0.6649-.6649,0.1719,0.1719a3.5705,3.5705,0,0,0-.7657.5641Zm15.1608,11.0648-0.6649.6649-0.16-.16q0.004-.1772.0042-0.36c0-.2094-0.0093-0.42-0.0243-0.63l0.18-.18Zm1.3831,1.3831-0.6649.6649-0.665-.665,0.6649-.6649ZM99.9452,44.828l0.36-.36,0.665,0.665-0.6649.6649L99.8282,45.32C99.8715,45.1617,99.9108,44.9982,99.9452,44.828Zm-0.3577,1.6877-0.665.665L98.92,47.1781c0.0344-.0425.0691-0.0847,0.1022-0.1291a4.4264,4.4264,0,0,0,.4153-0.6833Zm-1.3831,4.1493-0.665.665-0.6649-.6649L97.5395,50Zm0,2.7662-0.6649.665-0.665-.665,0.665-.665Zm1.3831,1.3831-0.665.665-0.665-.665,0.665-.665ZM88.576,47.8987l0.665-.665,0.6649,0.6649-0.6649.665Zm0-2.7662,0.6649-.6649,0.665,0.665-0.6649.665Zm8.2453,6.9155-0.6649.665-0.6649-.6649,0.665-.665Zm-5.4792-4.1493,0.665-.665,0.6649,0.665-0.6649.665Zm-1.3831-1.3831,0.6649-.665,0.6649,0.6649-0.6649.665ZM94.7733,50l0.665,0.665-0.6649.665-0.665-.665Zm1.3831-.0532-0.665-.665,0.665-.665,0.665,0.665Zm-1.3831-1.3831L94.7292,48.52c0.0256,0.0037.0517,0.0078,0.0771,0.0112Zm-0.7181.7181-0.6649.665-0.6649-.665,0.6649-.665Zm-4.0961,0,0.665-.665,0.665,0.665-0.5021.5021c-0.13-.0241-0.2613-0.0472-0.3936-0.0679ZM92.0071,50l0.0737,0.0737c-0.0391-.01-0.0776-0.02-0.1172-0.03Zm5.5324-1.4363-0.2309-.2309a3.6461,3.6461,0,0,0,.8738-0.4561l0.022,0.022Zm-9.6816.0532,0.6649,0.6649-0.3135.3134q-0.3253.0222-.6309,0.0721l-0.3855-.3855ZM101.6888,65.214l0.6649,0.6649-0.665.665-0.2928-.2928a7.3294,7.3294,0,0,0,.168-0.9123Zm0.6649,3.4312-0.665.665-0.665-.665,0.665-.665Zm1.3831,1.3831-0.665.665-0.6649-.665,0.665-.665Zm-4.0961,0,0.6649-.6649,0.665,0.665-0.6649.6649Zm1.3831,1.3831,0.6649-.6649,0.665,0.665-0.6649.6649Zm-0.7181-14.5491-0.6649-.6649,0.665-.665,0.6649,0.6649Zm-1.3831-6.9155-0.6649-.6649,0.6649-.6649,0.6649,0.6649Zm0.7182-2.048,0.6649-.665,0.6649,0.6649-0.665.665Zm1.3831-1.3831,0.6649-.6649,0.6649,0.6649-0.6649.6649ZM88.5228,29.9185l-0.4382.4382q-0.1983.0246-.388,0.0655l-0.5037-.5037,0.6649-.6649Zm-4.1493-1.3831L83.7086,29.2l-0.6649-.6649,0.6649-.6649Zm2.1013,15.9322L87.14,45.1325l-0.3268.3268-0.6289-.701Zm0,2.7662,0.6649,0.665-0.6649.6649-0.665-.665Zm-2.1012,3.4312-0.6649.6649-0.665-.665L83.7086,50Zm2.1012,15.9322,0.665,0.665-0.6649.6649-0.665-.665Zm0.7181-.7181,0.665-.665,0.665,0.665-0.665.665Zm13.8309,8.2986,0.665-.665,0.665,0.665-0.665.665Zm2.048-14.5491-0.6649-.665,0.665-.665,0.665,0.665Zm-1.3831-1.3831-0.665-.665,0.665-.665,0.6649,0.665ZM100.3056,51.33l-0.6649-.665L100.3056,50l0.6649,0.665Zm0.7181-2.048,0.665-.665,0.665,0.665-0.665.665Zm2.7662,0,0.6649-.6649,0.6649,0.6649-0.6649.6649Zm0.6649-4.8675-0.6649-.6649,0.6649-.6649,0.6649,0.6649Zm0.7182-2.048,0.17-.17c0.0421,0.1539.0827,0.3075,0.12,0.4605Zm-0.7182-.7182-0.6649-.665,0.6649-.6649,0.4248,0.4248c0.0326,0.09.0651,0.1792,0.0962,0.2687,0.01,0.0288.0193,0.0574,0.0291,0.0862ZM103.7368,39.6l-0.6649.6649L102.4069,39.6l0.6649-.6649Zm-3.4311-4.8675-0.6649-.6649,0.6649-.6649,0.6649,0.6649ZM98.9226,33.35l-0.6649-.6649,0.6649-.6649,0.6649,0.6649Zm-1.3831-1.3831-0.6649-.6649,0.6649-.6649,0.6649,0.6649Zm-2.1013-.6649-0.6649.6649-0.6649-.6649,0.6649-.6649ZM90.624,27.8172l-0.6649-.6649,0.6649-.6649,0.6649,0.6649Zm-2.1013-.6649-0.6649.6649-0.6649-.6649,0.6649-.6649Zm-4.1492-1.3831-0.6649.6649-0.6649-.6649,0.6649-.6649Zm-2.048-.7182-0.6649-.6649,0.6649-.6649L82.99,24.3861Zm2.7662,18.0335,0.6649,0.6649-0.2518.2518L84.89,43.3154,84.8761,43.3Zm0,2.7662,0.6649,0.6649-0.6649.6649-0.6649-.6649Zm-0.7181,2.048-0.6649.665-0.6649-.6649,0.6649-.665Zm-2.0481-.7182-0.6649-.6649,0.665-.665L82.99,46.5156Zm-0.7181.7182-0.6649.6649-0.6649-.6649,0.6649-.6649Zm-2.048,9.0167L80.2243,57.58l-0.665.6649L78.8944,57.58Zm5.5323,8.2986,0.665,0.665-0.6649.6649-0.665-.665ZM87.8579,67.98l0.6649,0.6649-0.6649.6649-0.6649-.6649Zm2.1012,0.6649,0.6649-.665,0.665,0.665-0.665.665Zm6.1973,4.8674,0.665,0.665-0.665.665-0.665-.665ZM96.8955,75.54l0.644-.644,0.6649,0.665-0.3641.3641Q97.378,75.7478,96.8955,75.54Zm2.0068,0.7594,0.02-.02,0.0387,0.0387Zm2.2373,0.5289,0.5491-.5491,0.64,0.64A8.8072,8.8072,0,0,1,101.14,76.8279Zm2.9263-.16,0.389-.389,0.1589,0.1589A3.91,3.91,0,0,1,104.0659,76.6678Zm1.9331-1.4606a3.9965,3.9965,0,0,1-.5436.6358l-0.2823-.2823,0.6649-.6649,0.22,0.22C106.0383,75.1461,106.0193,75.1777,105.999,75.2072Zm1.0952-3.2576-0.5381-.5381,0.6357-.6356Q107.1659,71.3888,107.0943,71.95Zm0.093-2.6732-0.6311-.6311,0.5414-.5414Q107.1619,68.6907,107.1873,69.2763Zm-0.4223-3.1884-0.2088-.2088,0.1306-.1306C106.7137,65.8616,106.74,65.9747,106.765,66.0879Zm-0.3831-1.4709-0.5439.5439-0.665-.665,0.665-.665,0.4353,0.4353Q106.3293,64.4415,106.3819,64.617Zm-1.0364-2.7562c0.0111,0.0245.0213,0.0491,0.0324,0.0737L105.173,61.73l0.0759-.0759C105.2811,61.7228,105.3142,61.7919,105.3455,61.8608Zm-0.57-1.17-0.32.32-0.6649-.665,0.5175-.5175Q104.552,60.261,104.7753,60.6912Zm-3.05-8.1912-0.2439.0054-0.4574-.4574,0.6649-.6649,0.665,0.6649-0.4449.4449C101.8482,52.4957,101.7875,52.4986,101.7251,52.5Zm2.1178-.5049,0.612-.6121,0.07,0.07A2.94,2.94,0,0,1,103.8429,51.9951Zm2.0544-6.2569-0.0593.0593-0.665-.665,0.6288-.6288Q105.8776,45.1277,105.8973,45.7382Zm-2.6331-8.4317-0.1923.1923-0.6649-.6649,0.356-.356Q103.0234,36.8908,103.2642,37.3065Zm-1.0723-1.6938-0.5031.5031-0.6649-.6649,0.6129-.6129C101.8266,35.0941,102.0124,35.352,102.1918,35.6127Zm-6.8151-7.0159L94.7733,29.2l-0.6649-.6649,0.5-.5Q94.9975,28.3116,95.3767,28.5968Zm-1.62-1.1466-0.367.3669-0.6649-.6649,0.2241-.2241Q93.358,27.1844,93.7572,27.45Zm-1.9117-1.19c0.0707,0.0408.14,0.0837,0.21,0.125l-0.0485.0485-0.1889-.1889Zm-3.4689-1.7283-0.5187.5187-0.6649-.6649,0.2217-.2217C87.7292,24.276,88.0494,24.3976,88.3766,24.5323Zm-4.9046-1.16h0c0.1668,0,.3388.0076,0.5133,0.019l-0.2769.2769-0.2949-.2948C83.4333,23.3729,83.4523,23.3719,83.472,23.3719ZM79.1069,26.94l0.4524-.4524,0.6649,0.6649-0.6649.6649-0.521-.521Q79.0691,27.114,79.1069,26.94Zm-0.1825,2.9487,0.6349-.6349,0.6649,0.6649-0.6649.6649-0.6324-.6323Zm0.28,2.4863,0.355-.3549,0.6649,0.6649-0.6649.6649L79.36,33.15C79.3025,32.8928,79.2512,32.6341,79.2044,32.3747ZM80.66,37.0038c-0.0581-.1273-0.1137-0.2552-0.169-0.3832l0.4516-.4516,0.6649,0.6649-0.6649.6649-0.0945-.0945Q80.7513,37.2043,80.66,37.0038Zm2.9545,4.7919,0.0943-.0943,0.6649,0.6649-0.1642.1642Q83.9033,42.1648,83.6143,41.7957Zm0.1963,3.7763,0.1174,0.0062-0.2194.2194L83.47,45.5591C83.5824,45.5618,83.6959,45.5659,83.8106,45.5719Zm-4.5139,1.19a3.8511,3.8511,0,0,1,.6817-0.492l0.2459,0.2459-0.6649.6649-0.3414-.3414C79.2444,46.8136,79.27,46.7865,79.2967,46.7618Zm-0.7157.8768,0.26,0.26-0.6649.6649L78.1525,48.54A5.1657,5.1657,0,0,1,78.581,47.6385ZM77.73,50.4462L78.1762,50l0.6649,0.6649-0.6649.6649-0.482-.482Q77.7088,50.6431,77.73,50.4462Zm-0.0122,2.7785,0.4585-.4585,0.6649,0.6649-0.6649.665L77.7607,53.68C77.7446,53.5285,77.73,53.3766,77.7177,53.2247Zm0.355,2.4112,0.1035-.1035,0.665,0.665-0.5076.5076Q78.1877,56.1715,78.0727,55.6359ZM79.45,59.791l0.1094-.1094,0.665,0.665-0.3432.3432Q79.6543,60.2428,79.45,59.791Zm0.9332,1.833,0.5593-.5593,0.665,0.665-0.6649.6649-0.2634-.2634Q80.5273,61.8787,80.3831,61.624ZM90.5812,72.0335l-0.6222-.6222,0.6649-.6649,0.665,0.665-0.6564.6564Zm0.9229,0.599,0.503-.503,0.665,0.665-0.3462.3463Q91.9093,72.889,91.5041,72.6325Zm1.7245,1.0417,0.1616-.1616,0.5792,0.5792Q93.6034,73.89,93.2286,73.6742Z" fill="#f4f0e9"/></svg>